<svg width="539" height="415" viewBox="0 0 539 415" fill="none" xmlns="http://www.w3.org/2000/svg">
<mask id="mask0_771_11676" style="mask-type:alpha" maskUnits="userSpaceOnUse" x="0" y="0" width="539" height="415">
<rect width="539" height="415" fill="#004B90"/>
</mask>
<g mask="url(#mask0_771_11676)">
<rect x="176" y="4" width="187.319" height="330" rx="31.8841" fill="#F5EEE8"/>
<path d="M242.957 4H297.028V4C297.028 9.97248 292.186 14.8141 286.214 14.8141H253.771C247.799 14.8141 242.957 9.97248 242.957 4V4Z" fill="#1E1E1E"/>
<path d="M268.049 155.341C269.456 154.08 270.886 152.843 272.584 151.946C273.093 152.479 273.602 152.988 274.087 153.522C276.949 156.723 276.9 163.234 274.014 166.435C273.335 167.187 272.559 167.89 271.832 168.618C270.377 167.454 269.019 166.168 267.928 164.665C268.534 164.034 269.164 163.428 269.746 162.798C270.886 161.561 270.91 158.323 269.746 157.087C269.165 156.505 268.607 155.923 268.049 155.341Z" fill="#66A6CA"/>
<path d="M272.512 167.599C272.56 167.963 272.875 168.133 273.118 168.375C275.397 170.679 277.628 173.031 279.98 175.238C283.885 178.875 281.654 184.38 277.604 185.107C277.555 185.107 277.531 185.204 277.507 185.253C276.731 185.253 275.931 185.253 275.155 185.253C272.997 184.477 271.614 182.731 270.062 181.203C265.576 176.741 261.114 172.255 256.652 167.793C256.895 167.526 257.137 167.26 257.38 166.993C259.756 164.592 262.108 162.216 264.485 159.815C264.533 159.815 264.558 159.815 264.606 159.815C265.479 160.688 266.328 161.609 267.201 162.458C267.637 162.895 267.977 163.477 268.607 163.671C269.699 165.174 271.057 166.435 272.512 167.599Z" fill="#66A6CA"/>
<path d="M245.182 139.348C245.01 139.514 244.84 139.679 244.819 139.955C246.301 141.469 247.793 142.972 249.275 144.465C249.775 144.969 250.274 145.471 250.771 145.972C250.766 145.977 250.762 145.981 250.757 145.985C250.767 146.006 250.773 146.03 250.778 146.052C250.785 146.082 250.791 146.107 250.805 146.107C252.903 148.22 256.557 151.89 259.793 155.115C261.607 156.923 262.983 158.889 264.159 160.065H264.281C265.517 158.659 267.201 157.051 268.729 155.959C270.135 154.674 271.59 153.462 273.264 152.564C273.312 152.516 273.358 152.465 273.404 152.414C273.495 152.311 273.587 152.209 273.7 152.128C278.065 149.17 282.697 146.793 287.668 145.023C291.553 143.639 295.572 142.833 299.597 142.026C300.722 141.801 301.847 141.575 302.969 141.337C301.66 141.07 300.617 140.367 299.671 139.421C295.803 135.519 290.035 129.762 285.017 124.754C284.017 123.756 283.047 122.788 282.128 121.871C282.076 121.812 282.025 121.753 281.975 121.695C281.834 121.533 281.694 121.371 281.533 121.21C280.454 120.126 279.374 119.041 278.295 117.955C273.965 113.602 269.629 109.242 265.261 104.914C264.219 103.895 263.394 102.78 263.006 101.374C262.988 101.398 262.968 101.422 262.948 101.446C262.889 101.519 262.83 101.592 262.812 101.665C262.376 103.847 261.939 106.029 261.527 108.212C260.581 113.207 259.078 118.033 256.919 122.64C254.009 128.848 250.178 134.45 245.255 139.276C245.231 139.3 245.206 139.324 245.182 139.348Z" fill="#004B90"/>
<path d="M254.627 149.885C254.621 149.854 254.615 149.824 254.615 149.8C254.276 149.46 253.934 149.124 253.591 148.787C252.907 148.113 252.223 147.44 251.56 146.744C249.305 144.489 247.074 142.234 244.843 139.955C244.581 139.992 244.435 140.159 244.282 140.333C244.236 140.385 244.19 140.438 244.14 140.488C243.494 141.118 242.859 141.758 242.22 142.402C241.9 142.725 241.578 143.05 241.254 143.374C240.393 144.235 239.531 145.095 238.671 145.954C236.089 148.531 233.512 151.104 230.948 153.704C227.456 157.22 227.48 162.264 230.948 165.78C231.704 166.551 232.477 167.312 233.252 168.076C233.77 168.586 234.289 169.097 234.803 169.612C235.055 169.534 235.229 169.349 235.412 169.154C235.425 169.141 235.438 169.127 235.451 169.113C235.43 169.136 235.41 169.158 235.389 169.181C235.221 169.366 235.044 169.56 234.779 169.636C235.555 170.588 236.434 171.438 237.312 172.288C237.642 172.607 237.971 172.925 238.295 173.249C242.127 177.105 247.219 177.105 251.026 173.346L256.628 167.817L257.355 167.017L264.461 159.839C261.187 156.542 257.914 153.268 254.64 149.995L254.64 149.994C254.634 149.991 254.628 149.988 254.622 149.985C254.628 149.98 254.634 149.975 254.64 149.97C254.64 149.945 254.634 149.915 254.627 149.885Z" fill="#66A6CA"/>
<path d="M281.142 120.842C279.107 118.807 277.076 116.768 275.045 114.731C271.794 111.468 268.544 108.206 265.286 104.962C264.243 103.944 263.419 102.853 263.031 101.422C262.909 100.137 262.958 98.9 263.54 97.7118C265.213 94.3411 269.554 93.4681 272.245 96.1113C277.632 101.39 282.941 106.745 288.26 112.109C288.611 112.463 288.961 112.816 289.312 113.17C289.313 113.169 289.315 113.168 289.316 113.167C289.378 113.222 289.445 113.276 289.513 113.332C289.658 113.449 289.807 113.569 289.922 113.701C295.572 119.351 302.169 125.987 307.795 131.661C310.075 133.965 310.463 136.923 308.668 139.276C307.262 141.094 305.249 141.701 302.97 141.361C301.66 141.094 300.617 140.391 299.672 139.445C296.563 136.31 293.035 132.828 289.554 129.394C286.844 126.72 284.163 124.075 281.732 121.644C281.571 121.483 281.43 121.321 281.29 121.159C281.22 121.078 281.15 120.998 281.078 120.917C281.099 120.892 281.12 120.867 281.142 120.842Z" fill="#66A6CA"/>
<path d="M268.728 155.983C269.286 156.565 269.868 157.147 270.402 157.729C271.566 158.966 271.566 160.542 270.426 161.779C269.844 162.41 269.213 163.04 268.607 163.646C267.952 163.452 267.637 162.87 267.201 162.434C266.303 161.585 265.455 160.664 264.606 159.791C265.843 158.384 267.176 157.075 268.728 155.983Z" fill="#FCFCFB"/>
<path d="M221.145 220.842C220.014 220.842 218.965 220.55 218 219.967C217.035 219.383 216.273 218.597 215.713 217.608C215.153 216.607 214.873 215.517 214.873 214.338C214.873 213.158 215.153 212.074 215.713 211.085C216.273 210.084 217.035 209.292 218 208.708C218.965 208.125 220.014 207.833 221.145 207.833C222.277 207.833 223.254 208.083 224.076 208.583C224.91 209.072 225.559 209.679 226.024 210.406C226.501 211.121 226.822 211.842 226.989 212.568L223.88 212.711C223.737 212.187 223.427 211.723 222.95 211.317C222.474 210.901 221.872 210.692 221.145 210.692C220.562 210.692 220.02 210.847 219.519 211.157C219.031 211.466 218.638 211.901 218.34 212.461C218.054 213.021 217.911 213.647 217.911 214.338C217.911 215.029 218.054 215.654 218.34 216.214C218.638 216.774 219.031 217.209 219.519 217.518C220.02 217.828 220.562 217.983 221.145 217.983C221.86 217.983 222.456 217.786 222.932 217.393C223.409 216.988 223.743 216.518 223.933 215.982L227.043 216.125C226.888 216.827 226.572 217.542 226.095 218.269C225.619 218.984 224.964 219.591 224.13 220.092C223.296 220.592 222.301 220.842 221.145 220.842ZM241.422 220.592H238.224L237.401 218.144H233.095L232.273 220.592H229.181L233.792 208.083H236.812L241.422 220.592ZM233.881 215.517H236.615L235.257 211.425L233.881 215.517ZM251.357 216.428L255.128 208.083H258.005V220.592H255.057V213.855L251.965 220.592H250.571L247.515 213.927V220.592H244.567V208.083H247.569L251.357 216.428ZM267.509 208.083C268.391 208.083 269.177 208.274 269.868 208.655C270.571 209.024 271.113 209.542 271.494 210.21C271.887 210.865 272.084 211.603 272.084 212.425C272.084 213.247 271.887 213.992 271.494 214.659C271.113 215.314 270.571 215.833 269.868 216.214C269.177 216.583 268.391 216.768 267.509 216.768H265.508V220.592H262.47V208.083H267.509ZM267.312 214.052C267.801 214.052 268.206 213.897 268.528 213.587C268.861 213.277 269.028 212.89 269.028 212.425C269.028 211.961 268.861 211.574 268.528 211.264C268.206 210.954 267.801 210.799 267.312 210.799H265.454V214.052H267.312ZM286.178 220.592H282.98L282.158 218.144H277.851L277.029 220.592H273.937L278.548 208.083H281.568L286.178 220.592ZM278.637 215.517H281.371L280.013 211.425L278.637 215.517ZM292.361 220.592H289.323V208.083H292.361V220.592ZM302.561 213.98H308.548V220.592H306.85L306.35 219.037C305.98 219.538 305.456 219.967 304.777 220.324C304.11 220.669 303.312 220.842 302.382 220.842C301.286 220.842 300.268 220.55 299.327 219.967C298.397 219.383 297.653 218.597 297.093 217.608C296.533 216.607 296.253 215.517 296.253 214.338C296.253 213.158 296.533 212.074 297.093 211.085C297.653 210.084 298.415 209.292 299.38 208.708C300.345 208.125 301.394 207.833 302.525 207.833C303.657 207.833 304.64 208.071 305.474 208.548C306.32 209.012 306.981 209.584 307.457 210.263C307.934 210.942 308.238 211.591 308.369 212.211L305.242 212.354C305.075 211.925 304.753 211.538 304.277 211.192C303.812 210.835 303.228 210.656 302.525 210.656C301.942 210.656 301.4 210.817 300.899 211.139C300.411 211.449 300.018 211.883 299.72 212.443C299.434 213.003 299.291 213.635 299.291 214.338C299.291 215.04 299.434 215.672 299.72 216.232C300.018 216.792 300.417 217.232 300.917 217.554C301.417 217.864 301.965 218.019 302.561 218.019C303.312 218.019 303.919 217.834 304.384 217.465C304.848 217.084 305.158 216.661 305.313 216.196H302.561V213.98ZM320.847 215.696V208.083H323.795V220.592H320.954L315.879 212.979V220.592H312.93V208.083H315.772L320.847 215.696Z" fill="#004B90"/>
<path d="M295.324 296.848C299.453 301.525 302.039 309.769 304.046 314.7L291.287 326.176C266.959 312.359 276.567 302.93 284.413 299.943C280.661 295.316 276.688 291.811 280.419 288.66C284.151 285.509 292.624 293.789 295.324 296.848Z" fill="#E58174"/>
<path d="M308.541 315.563C320.822 325.245 327.362 337.942 330.027 345.964C330.886 348.552 330.087 351.336 328.25 353.353L312.024 371.161C308.264 375.287 301.601 374.765 298.83 369.919C288.205 351.338 287.318 340.896 286.118 333.581C285.237 328.208 287.012 321.485 291.872 319.03L300.073 314.886C302.817 313.5 306.127 313.66 308.541 315.563Z" fill="#66A6CA"/>
<path d="M218.821 317.626C207.457 315.555 199.917 304.667 201.99 293.294C204.062 281.921 214.957 274.392 226.321 276.462C237.686 278.533 245.225 289.421 243.153 300.794C241.081 312.167 230.186 319.696 218.821 317.626Z" fill="#7F543A"/>
<path d="M229.836 274.655C233.582 273.594 238.809 271.614 245.05 271.346C248.124 271.214 249.157 274.935 246.805 276.919C241.54 281.362 234.737 287.126 233.594 287.921C231.861 289.126 228.651 296.793 227.262 300.476C227.129 303.69 239.309 300.158 243.086 302.279C243.086 302.279 243.311 305.647 239.942 309.69C236.573 313.732 234.103 314.181 234.103 314.181C232.492 314.07 229.795 315.741 227.262 313.732C224.096 311.221 223.762 301.48 223.096 298.634C222.429 295.788 218.596 298.634 216.43 301.48C214.263 304.326 215.263 305.665 218.596 308.845C221.262 311.39 219.707 313.812 218.596 314.704H204.264C202.931 314.704 199.598 313.164 196.932 307.004C193.599 299.304 187.391 282.066 201.09 273.308C212.037 266.309 226.892 272.033 229.836 274.655Z" fill="#222222"/>
<path d="M215.558 311.929C249.999 311.612 284.381 329.124 286.469 339.234L264.871 464.695H154.895C154.242 440.113 146.099 377.141 147.665 365.722C149.622 351.449 172.507 312.326 215.558 311.929Z" fill="#136751"/>
<path d="M367.777 310.189C378.281 308.275 385.249 298.211 383.334 287.7C381.419 277.189 371.349 270.23 360.846 272.143C350.342 274.057 343.374 284.121 345.289 294.632C347.204 305.143 357.274 312.103 367.777 310.189Z" fill="#E58174"/>
<path d="M345.352 258.714C343.193 262.367 345.421 268.124 346.805 270.546C347.806 272.621 346.805 276.15 346.805 280.301C346.805 284.453 349.503 285.075 351.994 286.113C354.485 287.151 352.617 291.095 351.994 295.038C351.496 298.193 354.277 305.486 355.73 308.738L384.167 310.741C391.224 295.038 395.168 279.191 391.224 273.379C387.773 268.293 380.223 262.658 374.204 262.45C368.184 262.243 369.014 258.714 363.203 253.94C357.391 249.166 348.05 254.148 345.352 258.714Z" fill="#222222"/>
<path d="M362.034 305.872C327.593 305.554 314.809 325.696 312.721 335.806V458.637H422.697C423.35 434.055 424.263 361.696 422.697 350.277C420.741 336.004 405.086 306.268 362.034 305.872Z" fill="#66A6CA"/>
<path d="M383.863 300.68C358.6 293.468 341.962 312.097 339.964 321.224L402.661 339.922C404.812 330.573 409.126 307.892 383.863 300.68Z" fill="#66A6CA"/>
<path d="M420.342 346.163C431.321 344.162 438.605 333.643 436.603 322.656C434.601 311.669 424.075 304.395 413.096 306.395C402.117 308.395 394.833 318.915 396.835 329.902C398.837 340.889 409.363 348.163 420.342 346.163Z" fill="#E58174"/>
<path d="M249.635 361.903C247.291 370.881 254.726 378.597 258.394 380.169C296.483 391.128 332.534 394.41 319.84 374.596C318.493 373.324 315.347 368.132 318.581 364.898C322.623 360.855 323.746 354.792 322.623 351.199C321.5 347.605 317.233 345.809 314.538 344.686C311.843 343.563 312.068 342.44 313.415 338.173C314.763 333.906 315.661 329.414 312.068 326.27C308.474 323.126 302.86 324.923 299.042 327.842C295.224 330.762 290.733 329.414 289.61 324.923L289.61 324.923C288.487 320.431 286.915 314.143 276.809 316.164C266.703 318.185 271.194 326.27 267.152 330.088C263.11 333.906 261.762 331.436 258.393 331.211C255.025 330.986 250.982 333.232 249.635 338.173C248.287 343.114 254.126 349.627 251.881 353.669C249.635 357.711 250.281 359.426 249.635 361.903Z" fill="#222222"/>
<path d="M281.991 373.786C323.865 369.448 344.377 399.274 346.464 409.385L331.304 526.551H221.327C220.675 501.97 219.762 429.61 221.327 418.192C223.284 403.918 239.167 378.222 281.991 373.786Z" fill="#004B90"/>
<path d="M82.9915 304.301C96.6544 297.238 101.208 302.207 101.777 305.575C76.2328 316.712 78.3827 339.194 60.6802 350.962C42.9776 362.73 22.7201 359.211 15.1713 343.456C7.62242 327.702 21.009 308.459 43.0801 311.099C57.5711 312.832 65.913 313.13 82.9915 304.301Z" fill="#1E1E1E"/>
<path d="M130.792 324.598C143.207 322.336 151.444 310.44 149.181 298.015C146.917 285.59 135.013 277.364 122.598 279.626C110.182 281.888 101.945 293.784 104.209 306.209C106.473 318.634 118.376 326.86 130.792 324.598Z" fill="#7F543A"/>
<path d="M109.967 325.422C109.447 324.562 108.857 323.656 108.232 322.697C103.803 315.901 97.6562 306.467 102.745 292.12C105.888 283.259 117.564 276.433 134.546 280.396L132.041 290.596C131.045 295.877 124.802 300.976 119.352 301.201C116.377 301.324 113.643 302.467 112.456 305.761C110.95 309.939 112.223 313.918 115.482 317.268C118.321 320.185 117.69 325.807 113.592 325.67C112.381 325.63 111.172 325.547 109.967 325.422Z" fill="#1E1E1E"/>
<path d="M99.1489 327.555C78.9247 330.276 64.2899 369.339 64.2899 397.048L64.0444 494.715H176.217L185.298 420.374C190.207 386.599 178.671 356.227 171.063 344.807C164.976 335.671 149.873 330.795 143.083 329.499L141.577 321.004L102.811 320.268L99.1489 327.555Z" fill="#FBB200"/>
<path d="M166.619 360.006C156.116 358.092 149.147 348.028 151.062 337.517C152.977 327.006 163.048 320.047 173.551 321.96C184.054 323.874 191.023 333.938 189.108 344.449C187.193 354.96 177.122 361.92 166.619 360.006Z" fill="#E58174"/>
<path d="M152.963 361.109C113.246 374.54 113.723 473.939 118.926 521.959H251.822C250.449 505.892 246.749 447.748 238.944 425.218C229.188 397.056 202.609 344.32 152.963 361.109Z" fill="#999089"/>
<path d="M435.726 343.772C475.443 357.204 474.966 456.602 469.763 504.622H336.867C338.24 488.555 341.94 430.411 349.745 407.882C359.501 379.719 386.08 326.983 435.726 343.772Z" fill="#FF6645"/>
<path d="M169.613 305.903C183.533 306.383 190.493 317.663 188.573 327.503C186.653 332.302 187.55 343.575 178.67 345.495C169.791 347.415 168.654 349.068 169.613 358.188C170.573 367.308 155.214 363.741 150.654 366.141C146.094 368.541 147.774 369.741 150.654 379.341C153.534 388.94 144.894 393.02 128.095 393.5C111.295 393.98 103.136 382.701 100.736 375.981C98.3358 369.261 107.695 368.541 109.855 360.381C112.015 352.222 106.256 349.582 107.695 342.142C109.135 334.702 122.095 335.422 128.095 334.222C134.095 333.022 137.935 330.862 137.695 322.703C137.455 314.543 141.774 311.423 147.774 310.703C153.774 309.983 155.694 305.423 169.613 305.903Z" fill="#1E1E1E"/>
<path d="M403.083 313.707C401.745 310.739 402.902 307.902 404.585 304.541C413.645 293.794 440.946 299.367 440.946 319.34C466.803 324.722 466.084 345.8 462.493 355.667C498.853 373.157 480 406.793 458.453 406.793C421.823 405.717 425.234 380.333 431.519 367.776C413.954 367.776 407.716 352.436 410.858 343.018C406.043 339.582 405.185 332.526 406.012 326.823C406.632 322.548 404.858 317.645 403.083 313.707Z" fill="#222222"/>
</g>
</svg>
