<svg width="40" height="353" viewBox="0 0 40 353" fill="none" xmlns="http://www.w3.org/2000/svg">
<g clip-path="url(#clip0_699_12873)">
<path d="M32.1 6.4999C31 5.9999 29.3 5.4999 28.8 5.3999C28.3 5.3999 28.2 5.4999 27.7 6.1999C26.3 8.0999 26 8.5999 26 8.8999C26 9.1999 26.2 9.4999 26.7 9.5999C29.5 10.4999 32.4 12.3999 34.6 14.6999C34.9 14.9999 35.1 15.1999 35.4 15.1999C36.2 15.1999 38.4 12.2999 38.4 11.4999C38.4 10.3999 34.4 7.5999 32.1 6.4999Z" fill="#1E1E1E"/>
<path d="M25.5996 15.3C22.8996 15.3 19.5996 15.9 15.4996 17.3V12.3C17.9996 11.9 21.1996 11.2 21.6996 11C22.0996 10.8 22.3996 10.5 22.3996 10C22.3996 9.3 22.0996 7.6 21.8996 6.7C21.7996 6.3 21.4996 6.1 20.9996 6.1C20.8996 6.1 20.7996 6.1 20.5996 6.2C18.9996 6.7 16.8996 7.2 15.4996 7.5C15.4996 4.9 15.6996 3.4 16.0996 2.6C16.2996 2.2 16.3996 2 16.3996 1.6C16.3996 1.1 16.1996 0.8 15.5996 0.6C14.6996 0.4 13.5996 0.2 10.0996 0L9.99961 0L10.0996 0.3C10.4996 2.6 10.6996 4.7 10.6996 7.5V8.2C8.29961 8.5 6.49961 8.6 4.49961 8.6H2.59961V8.8C2.89961 12.6 3.09961 13.4 4.69961 13.4C6.49961 13.4 7.39961 13.4 10.5996 13V19.4C5.19961 22.2 2.69961 24.8 2.69961 27.6C2.69961 28.8 2.99961 29.8 3.79961 30.8C5.59961 33.1 8.49961 34.6 11.1996 34.6C14.0996 34.6 15.5996 32.8 15.5996 29.2C15.5996 28.8 15.5996 28 15.5996 27.3C15.5996 26.7 15.5996 26.7 15.5996 23.9C15.5996 22.7 15.5996 22.4 15.5996 22.2C19.1996 20.7 22.4996 19.8 25.1996 19.8C27.8996 19.8 29.5996 21.5 29.5996 24.3C29.5996 27.2 27.7996 28.8 24.5996 28.8C22.8996 28.8 21.4996 28.5 19.7996 27.9L19.2996 27.7L19.4996 28.2C19.9996 29.4 20.2996 30.4 20.2996 31.6C20.3996 32.6 20.3996 32.9 20.9996 33.2C21.6996 33.7 24.5996 33.7 25.4996 33.7C27.4996 33.7 29.4996 33.2 30.8996 32.4C33.4996 30.9 34.8996 28 34.8996 24.4C34.8996 18.9 31.2996 15.3 25.5996 15.3ZM10.6996 24.6V28.3C10.6996 29.4 10.3996 29.4 10.0996 29.4C8.89961 29.4 7.59961 28.4 7.59961 27.6C7.59961 26.9 8.49961 26 10.6996 24.6Z" fill="#1E1E1E"/>
<path d="M26 70.1999C27.8 70.1999 29 70.2 30 70.4H30.3V68.5C32.7 70 34.1 70.7 37.2 72L37.4 72.0999L37.5 71.9C38.1 70.2 38.7 68.9 39.7 67.4L39.9 67.1999L39.6 67.0999C35.1 65.5999 32.1 64.1 28.8 61.7C26 59.6 24.2 57.8 22.5 55.4L22.4 55.2999H17V55.2C14 60.1 7.9 64.4999 0.3 67.0999L0 67.1999L0.2 67.4C1.3 69 1.6 69.4999 2.6 71.5999L2.7 71.8L2.9 71.6999C5.6 70.4999 7.3 69.7 9.3 68.5V70.3H9.6C10.7 70.2 11.9 70.0999 13.6 70.0999H17V73.5999H7.5C5.6 73.5999 4.3 73.6 3 73.4H2.7V78.5H3C4.2 78.2999 5.7 78.1999 7.5 78.1999H10.2L6.1 79.9L6.2 80.0999C7.6 82.1999 8.6 84.4 9.4 86.9V87H6.9C4.9 87 3.4 86.8999 1.8 86.6999H1.5V91.9H1.7C3.4 91.7 5 91.5999 6.8 91.5999H32.7C34.5 91.5999 36.1 91.7 37.6 91.9H37.9V86.6999H37.6C36.3 86.8999 35 87 33 87H29.5C30.7 85 30.9 84.6 31.1 84.3L31.2 84.0999C32.7 81.0999 32.7 81.0999 33.2 80.1999L33.3 80L28.9 78.3H32.2C34.1 78.3 35.5 78.3999 36.7 78.5999H37V73.5H36.7C35.7 73.7 34.6 73.6999 32.3 73.6999H22.1V70.1999H26ZM26.4 65.9H13.2C16.1 63.8 17.8 62.0999 19.7 59.5999C21.6 61.9999 23.6 63.8 26.4 65.9ZM14.1 85.3L14 85.0999C12.9 82.2999 12.1 80.6999 10.7 78.1999H17V87H9.9L14.1 85.3ZM28.4 78.3C27.4 81.1 26.5 83.2 25.2 85.3L25 85.5999L28.7 87H22V78.3H28.4Z" fill="#1E1E1E"/>
<path d="M36.2996 142C36.1996 141.5 35.9996 141.2 35.4996 141.2C35.2996 141.2 35.0996 141.2 34.7996 141.3C32.1996 142 30.5996 142.3 27.7996 142.3C24.8996 142.3 23.3996 142 21.9996 141.3C20.6996 140.6 19.9996 139.9 19.1996 138.4L19.0996 138.2L18.8996 138.3C16.4996 139.8 15.5996 140.6 15.5996 141.3C15.5996 142.6 17.7996 145.1 19.5996 146.2C21.5996 147.4 24.0996 147.9 28.0996 147.9C30.8996 147.9 33.2996 147.6 35.6996 147C36.2996 146.8 36.5996 146.6 36.5996 146.1C36.6996 145.2 36.4996 143.5 36.2996 142Z" fill="#1E1E1E"/>
<path d="M18.3995 124.5C18.8995 124.8 22.6995 125 25.8995 125C28.9995 125 31.8995 124.8 33.6995 124.4C34.3995 124.3 34.4995 123.9 34.4995 123.2C34.4995 122 34.3995 120.1 34.2995 119.7C34.1995 119.4 34.0995 119.1 33.5995 119.1C33.3995 119.1 33.3995 119.1 33.1995 119.1C30.6995 119.6 27.8995 119.8 24.8995 119.8C22.7995 119.8 20.0995 119.6 19.1995 119.4C19.0995 119.3 18.9995 119.3 18.8995 119.3C18.4995 119.3 18.2995 119.5 18.2995 119.7C18.1995 120.1 18.0995 121.8 18.0995 123C17.9995 123.8 17.9995 124.3 18.3995 124.5Z" fill="#1E1E1E"/>
<path d="M12.8996 138.3C12.0996 137.1 11.8996 136.7 11.4996 135.9L11.2996 135.4L11.0996 135.9C10.7996 136.5 10.4996 137.1 10.2996 137.6C9.89961 138.5 9.49961 139.4 8.89961 140.7C8.79961 139.2 8.79961 138.1 8.79961 137.2C8.79961 131.2 10.2996 122.1 11.7996 119.9C12.2996 119.2 12.3996 119 12.3996 118.7C12.3996 118.1 11.9996 117.8 11.2996 117.6C10.0996 117 8.59961 116.6 6.59961 116.2H6.39961V116.4C6.19961 117.7 5.99961 119 5.59961 121.4C4.39961 127.8 4.09961 130.7 4.09961 135.5C4.09961 139.8 4.79961 145.6 5.59961 148.4C5.79961 149 5.99961 149.2 6.69961 149.2C6.89961 149.2 7.09961 149.2 7.19961 149.2C7.29961 149.2 7.39961 149.2 7.49961 149.2H7.69961C8.19961 149.2 9.69961 149 9.89961 148.9C10.0996 148.8 10.2996 148.5 10.3996 147.9C10.8996 145.7 11.8996 142.6 12.7996 140.6L12.9996 140.2C13.1996 139.6 13.2996 139.5 13.2996 139.2C13.1996 138.8 13.0996 138.6 12.8996 138.3Z" fill="#1E1E1E"/>
<path d="M6.2 178.8H14C13.9 181.2 13.7 182.6 12.9 184.2C12.1 186 10.9 187 7.7 188.7L7.3 188.9L7.7 189.1C9.5 190.1 10.4 190.8 11.3 191.8L11.4 191.9L11.6 191.8C14.3 190.2 15.9 188.6 17.1 186.5C18.2 184.4 18.6 182.3 18.8 178.8H22.1V185.4C22.1 185.9 22.1 185.9 21.4 185.9C20.5 185.9 19.7 185.8 18.3 185.6L17.8 185.5L18.1 185.9C18.9 187.2 19.2 188.2 19.4 189.8V190H19.6C20.6 190.1 21 190.1 22.7 190.1C25.9 190.1 26.9 189.3 26.9 186.8V178.7H33.1C34.9 178.7 36.4 178.8 37.9 178.9H38.1V174H37.8C36.5 174.2 35 174.3 32.9 174.3H22.3V173.7C22.3 172.7 22.4 172 22.5 171.1V170.8H16.9V171.1C17 171.9 17.1 172.6 17.1 173.7V174.3H6.6C4.4 174.3 3 174.2 1.8 174H1.5V178.9H1.8C3.1 178.8 4.1 178.8 6.2 178.8Z" fill="#1E1E1E"/>
<path d="M30.8004 179.5L30.7004 179.4L26.9004 181.9L27.1004 182.1C30.5004 185.5 31.8004 187.1 34.0004 190.6L34.1004 190.8L38.3004 187.6L38.2004 187.4C35.7004 184.2 33.7004 182.1 30.8004 179.5Z" fill="#1E1E1E"/>
<path d="M1.5998 188.1L2.2998 188.6C2.7998 189 2.7998 189 3.8998 189.9L3.9998 190C4.1998 190.1 4.3998 190.3 4.6998 190.6L4.8998 190.8L5.0998 190.7C6.8998 189.1 7.6998 188.3 8.9998 186.6C10.3998 184.8 11.0998 183.7 12.2998 181.3L12.3998 181.1L7.9998 179.1L7.8998 179.3C6.9998 181.5 6.1998 182.6 4.6998 184.3C3.6998 185.5 2.8998 186.2 1.0998 187.5L0.799805 187.7L1.1998 187.9C1.2998 187.9 1.3998 188 1.5998 188.1Z" fill="#1E1E1E"/>
<path d="M39.0002 204.2C32.7002 204 29.2002 203.4 24.9002 201.9C26.7002 200.6 28.2002 199.3 29.8002 197.7C31.7002 195.9 31.7002 195.9 32.3002 195.3L32.5002 195.1L29.6002 192H29.5002C28.9002 192.2 27.7002 192.2 26.0002 192.2H18.7002L18.8002 192.1C19.0002 191.9 19.1002 191.7 19.2002 191.6L19.3002 191.5C19.8002 191 19.8002 191 20.1002 190.6L20.3002 190.4L15.7002 188.5L15.6002 188.7C14.7002 190.3 13.4002 191.6 11.4002 193.2C8.8002 195.2 6.0002 196.6 2.8002 197.6L2.5002 197.7L2.7002 198C3.9002 199.4 4.4002 200.2 5.2002 201.6L5.3002 201.8L5.5002 201.7C8.1002 200.7 9.7002 200 11.7002 198.7C13.0002 200 13.9002 200.8 15.5002 201.9C10.6002 203.7 7.1002 204.2 0.600195 204.3H0.200195L0.500195 204.7C1.6002 206.1 2.1002 207.2 2.7002 209L2.8002 209.2H3.0002C11.1002 208.3 15.2002 207.3 20.5002 204.9C22.9002 206 24.2002 206.5 26.8002 207.3C30.2002 208.3 32.1002 208.7 37.1002 209.4H37.3002L37.4002 209.2C37.8002 207.6 38.5002 206.3 39.6002 204.6L39.8002 204.3L39.0002 204.2ZM15.3002 196.4H24.7002C23.0002 197.9 21.9002 198.7 20.1002 199.8C18.1002 198.7 16.6002 197.6 15.3002 196.4Z" fill="#1E1E1E"/>
<path d="M26.3004 237.7C22.2004 237.7 18.7004 239.1 14.6004 242.5C14.6004 242.3 14.6004 242 14.6004 241.4C15.1004 240.8 15.4004 240.3 15.6004 240.1L15.7004 239.9C17.1004 238.2 17.1004 238.2 17.1004 237.7C17.1004 237 16.1004 236 15.1004 235.3C15.4004 232 15.5004 231.8 15.9004 231C16.1004 230.5 16.2004 230.3 16.2004 230.1C16.2004 229.4 15.6004 229.1 15.1004 229C13.9004 228.7 12.5004 228.5 9.80039 228.4H9.50039L9.60039 228.7C9.80039 229.6 9.90039 230.6 9.90039 231.8C9.90039 232.4 9.90039 233.1 9.90039 234C9.90039 234.9 9.90039 235.8 9.90039 236.6C6.80039 237.1 4.10039 237.4 1.90039 237.4H1.60039V237.7C2.20039 241.3 2.80039 242.9 3.70039 242.9C4.00039 242.9 4.10039 242.8 4.50039 242.6C5.20039 242.2 7.60039 241.6 9.70039 241.2C9.70039 242.6 9.70039 243.5 9.70039 243.8C7.50039 246.8 5.00039 249.7 3.10039 251.5C0.90039 253.7 0.900391 253.7 0.900391 254.1C0.900391 254.3 1.00039 254.6 1.80039 255.5C3.30039 257.2 4.30039 258 4.80039 258C5.20039 258 5.50039 257.7 5.80039 257.2C6.50039 256 7.80039 254.2 9.70039 252.1C9.70039 253.6 9.70039 254 9.70039 258.2V263.2C9.70039 264.5 9.80039 264.8 11.1004 264.8C14.0004 264.8 15.0004 264.7 15.0004 263.6C15.0004 263.2 15.0004 262.9 15.0004 262.7C14.7004 253.7 14.7004 253.3 14.7004 248.8C14.7004 248.3 14.7004 248.2 14.7004 248C17.0004 246 17.1004 246 18.4004 245.1C21.1004 243.3 23.4004 242.5 25.8004 242.5C29.5004 242.5 31.9004 245.1 31.9004 249C31.9004 254.2 28.6004 257.1 20.2004 259.3L19.7004 259.4L20.1004 259.7C21.0004 260.3 21.7004 261.1 22.4004 262.1C22.9004 262.9 23.0004 262.9 23.1004 263C23.3004 263.2 23.7004 263.3 23.9004 263.3C24.9004 263.3 28.2004 262.1 30.0004 261C35.0004 258.3 37.4004 254.4 37.4004 249C37.4004 242 33.2004 237.7 26.3004 237.7Z" fill="#1E1E1E"/>
<path d="M24.3 299.7C22.1 299.7 20.2 300.2 18 301.2C18.9 300.3 19.4 299.8 20.8 298.4C22.9 296.3 23.4 295.8 24.5 294.7L25.6 293.7C26.6 292.8 27 292.4 27.8 291.9C28.7 291.3 29 291.1 29 290.4C29 290 28.7 289.3 27.9 288.3C26.8 286.6 26.1 286 25.4 286C25.1 286 24.8 286.1 24.5 286.2C23.3 286.7 22.8 286.8 21.3 287C16.5 287.5 13.3 287.8 11.3 287.8C10.4 287.8 9.6 287.8 8.4 287.6H8.1V287.9C8.2 289.9 8.5 291.3 9 292.5C9.2 293.1 9.5 293.5 10 293.5C10.1 293.5 10.2 293.5 10.3 293.4H10.5C11.7 293 15 292.4 20.2 291.7C16 296.8 13 300.1 8.9 303.9C7.2 305.5 5.8 306.8 4.7 307.6C3.8 308.3 3.5 308.6 3.5 309.1C3.5 310 6.6 313.1 7.5 313.1C7.9 313.1 8.2 312.8 8.4 312.4C9.1 311.5 9.8 310.7 10.5 310C14.2 306.3 18.6 304.2 22.7 304.2C26.6 304.2 29.2 306.5 29.2 310C29.2 312.2 28.4 313.7 26.4 315.2C24.6 311.5 22 309.7 18.3 309.7C14.1 309.7 11.2 312.2 11.2 315.7C11.2 319.5 14.5 321.8 20 321.8C23.5 321.8 26.5 321.1 28.9 319.6C32.5 317.5 34.6 313.8 34.6 309.7C34.8 303.9 30.5 299.7 24.3 299.7ZM18 314.3C18.8 314.3 19.5 314.5 20.1 314.9C20.9 315.4 21.3 316 21.8 317.2C20.8 317.5 20.1 317.5 19.3 317.5C17.4 317.5 16.1 316.8 16.1 315.7C16 314.9 16.8 314.3 18 314.3Z" fill="#1E1E1E"/>
<path d="M32.2998 337.9C28.1998 337.9 24.7998 341.2 24.7998 345.4C24.7998 349.5 28.0998 352.9 32.2998 352.9C36.3998 352.9 39.7998 349.5 39.7998 345.4C39.6998 341.2 36.3998 337.9 32.2998 337.9ZM32.2998 349.1C30.2998 349.1 28.5998 347.4 28.5998 345.4C28.5998 343.4 30.1998 341.7 32.2998 341.7C34.3998 341.7 35.9998 343.3 35.9998 345.4C35.8998 347.4 34.2998 349.1 32.2998 349.1Z" fill="#1E1E1E"/>
</g>
<defs>
<clipPath id="clip0_699_12873">
<rect width="39.8" height="352.8" fill="white"/>
</clipPath>
</defs>
</svg>
