<svg width="40" height="353" viewBox="0 0 40 353" fill="none" xmlns="http://www.w3.org/2000/svg">
<g clip-path="url(#clip0_699_12854)">
<path d="M7.6998 11.9L7.89981 12.1L11.1998 8.60005L11.0998 8.40005C8.7998 5.80005 7.0998 4.20005 4.7998 2.40005L4.5998 2.30005L1.2998 5.50005L1.4998 5.70005C3.7998 7.40005 5.5998 9.20005 7.6998 11.9Z" fill="#1E1E1E"/>
<path d="M38.8 33.3C35.4 32.6 33.5 31.9 30.7 30.7C28.7 29.8 27.4 29 25.3 27.4H32.6C34.8 27.4 36.2 27.5 37.5 27.7H37.8V22.7H37.5C36.4 23 35 23 32.7 23H21.9V20.8H24.2C25.4 20.8 26.3 20.8 27.3 20.9H27.6V20.6C27.5 19.8 27.5 19 27.5 17.2V15.9L27.6 16C30.6 17.5 33.1 19 36.2 21.3L36.4 21.4L39.1 17.5L38.9 17.4C36.3 15.7 34 14.5 30.1 12.5L29.9 12.4L27.5 15.7V7.7C27.5 5.8 27.5 5.4 27.6 4.3V4H27.3C26.2 4.1 25.9 4.1 24.2 4.1H21C21.3 3.4 21.8 2.3 22.4 0.7L22.5 0.4L17.5 0V0.2C17.2 1.8 16.8 2.8 16.2 4.2H15C13.2 4.2 12.8 4.2 11.8 4.1H11.5V4.4C11.6 5.6 11.6 6 11.6 7.7V17.3C11.6 18.7 11.6 19.8 11.5 20.7V21H11.8C12.7 20.9 13.8 20.9 14.9 20.9H16.9V23H6.4C4.3 23 2.7 22.9 1.6 22.7H1.3V27.7H1.6C2.9 27.5 4.4 27.4 6.5 27.4H13.3C10.2 30.1 5.7 32.2 0.4 33.5L0 33.6L0.3 33.9C1.5 35.2 2.1 36.2 3 37.8V38L3.2 37.9C6.3 36.9 8.9 35.7 11.1 34.4C13.4 33 14.9 31.9 17 29.7C17 30.6 17 31.1 17 31.8V34.1C17 35.8 16.9 36.9 16.7 38.3V38.6H22.3V38.3C22 36.9 22 36.1 22 34.1V31.7C22 31.6 22 31.3 22 31C22 30.6 22 30.2 22 30.1C22 29.9 22 29.7 22 29.6C23.8 31.5 26 33.2 28.5 34.7C30.9 36.1 32.4 36.7 36.4 37.9L36.6 38L36.7 37.8C37.5 36.1 38.1 35 39.2 33.6L39.4 33.3H38.8ZM16.2 10.5V8.3H22.8V10.5H16.2ZM16.2 16.7V14.3H22.8V16.7H16.2Z" fill="#1E1E1E"/>
<path d="M30.8 12.2C32.9 10.6 34.8 8.80005 37.8 5.60005L38 5.50005L34.3 2.30005L34.2 2.50005C32.1 5.20005 30.7 6.50005 27.7 8.90005L27.5 9.00005L30.6 12.4L30.8 12.2Z" fill="#1E1E1E"/>
<path d="M2.3999 21.4C3.2999 20.9 3.2999 20.9 4.0999 20.5C7.6999 18.8 9.1999 17.9 11.4999 16.3L11.5999 16.2L10.3999 12L10.0999 12.2C6.4999 14.5 3.2999 16.1 0.599902 16.8L0.399902 16.9L2.1999 21.5L2.3999 21.4Z" fill="#1E1E1E"/>
<path d="M35.7998 85.0001C34.7998 83.0001 34.4998 82.2001 34.2998 80.9001L34.1998 80.4001L33.8998 80.9001C32.2998 83.2001 31.3998 84.4001 29.8998 85.8001C26.5998 88.9001 22.9998 90.4001 19.1998 90.4001C16.8998 90.4001 15.4998 89.7001 15.0998 88.4001C14.8998 87.7001 14.7998 86.7001 14.7998 85.4001C14.7998 81.2001 14.9998 76.0001 15.2998 68.9001C15.4998 66.0001 15.7998 63.8001 16.2998 62.5001C16.4998 61.9001 16.5998 61.7001 16.5998 61.4001C16.5998 60.7001 16.0998 60.5001 15.0998 60.2001C13.8998 59.9001 12.2998 59.7001 9.8998 59.6001H9.5998V59.9001C9.7998 61.7001 9.8998 62.7001 9.8998 66.4001C9.8998 66.6001 9.8998 67.0001 9.8998 67.5001C9.8998 67.9001 9.8998 68.5001 9.7998 69.2001C9.3998 79.3001 9.2998 81.8001 9.2998 85.1001C9.2998 89.3001 9.9998 91.7001 11.5998 93.4001C13.1998 95.0001 15.6998 95.8001 18.8998 95.8001C23.8998 95.8001 28.5998 93.8001 32.8998 90.0001C35.0998 88.0001 35.8998 87.0001 35.8998 86.1001C36.0998 85.7001 35.9998 85.4001 35.7998 85.0001Z" fill="#1E1E1E"/>
<path d="M17.5002 137.3L17.3002 136.7L17.1002 137.3C15.6002 141.9 14.2002 143.9 12.5002 143.9C11.5002 143.9 10.6002 142.8 9.9002 140.9C9.10019 138.4 8.7002 134.9 8.7002 129.5C8.7002 125.6 8.9002 124 9.4002 122.6C9.60019 122.2 9.6002 122.1 9.6002 121.8C9.6002 121.2 9.1002 120.9 8.1002 120.5C6.9002 120.1 5.5002 119.8 3.5002 119.5H3.2002V119.8C3.3002 120.8 3.3002 122.5 3.3002 123.6V128.1C3.3002 134 3.8002 138.4 4.8002 141.9C6.4002 147.3 8.9002 150 12.3002 150C14.6002 150 16.9002 148.6 18.6002 146.1C19.5002 144.8 20.1002 143.3 20.1002 142.6C20.1002 142.3 20.0002 141.9 19.7002 141.6C18.6002 140.1 18.3002 139.5 17.5002 137.3Z" fill="#1E1E1E"/>
<path d="M35.8004 133.5C34.4004 130.1 32.1004 126.7 30.0004 124.6C29.6004 124.3 29.4004 124.1 29.0004 124.1C28.4004 124.1 27.0004 124.9 25.1004 126.2L24.9004 126.3L25.0004 126.5C27.9004 130.1 28.0004 130.2 29.2004 132.7C30.6004 135.5 31.3004 137.9 31.8004 141.1C31.9004 141.8 32.1004 142.3 32.7004 142.3C33.3004 142.3 35.4004 141.6 36.3004 141.1C37.2004 140.6 37.5004 140.4 37.5004 139.8C37.7004 138.8 36.8004 135.8 35.8004 133.5Z" fill="#1E1E1E"/>
<path d="M33.7002 201C33.6002 199.5 33.5002 192.1 33.5002 189.5C33.5002 182.4 33.5002 180.1 33.6002 175.9V175.7H33.4002C29.2002 175.9 28.3002 175.9 17.1002 175.9C11.5002 175.9 8.2002 175.8 5.7002 175.5H5.4002V175.8C5.6002 179 5.7002 180.1 5.9002 181.2C6.0002 181.6 6.1002 181.7 6.6002 181.9H6.7002H6.9002H7.1002C7.1002 181.9 7.2002 181.9 7.3002 181.9C7.4002 181.9 7.4002 181.9 7.6002 181.8C8.6002 181.6 16.1002 181.3 24.4002 181.3H28.0002V195.3C22.0002 195.3 21.9002 195.3 17.4002 195.3C10.8002 195.3 7.9002 195.2 5.0002 195H4.7002V195.3C4.8002 197.8 5.0002 199.2 5.1002 200C5.2002 200.9 5.4002 201.3 6.1002 201.3C6.2002 201.3 6.4002 201.3 6.5002 201.3C7.2002 201.2 7.8002 201.1 8.6002 201.1H8.9002C10.6002 201 19.3002 200.8 23.8002 200.8H27.8002C27.8002 202.3 27.8002 202.3 27.8002 202.5C27.8002 203.8 28.0002 203.8 29.7002 203.8C30.8002 203.8 32.8002 203.6 33.1002 203.5C33.7002 203.3 33.7002 202.5 33.7002 202.3C33.8002 201.7 33.8002 201.7 33.7002 201Z" fill="#1E1E1E"/>
<path d="M33.5002 245.2C29.9002 243.3 27.4002 242.1 22.9002 240.6C21.2002 240 21.1002 240 18.3002 239.1C18.4002 235.4 18.5002 233.1 18.5002 232.1C18.5002 231.8 18.5002 231.6 18.5002 231.6C18.5002 230.9 18.6002 230.3 18.8002 229.8C19.0002 229.1 19.0002 229 19.0002 228.8C19.0002 228.4 18.7002 228.1 18.2002 227.9C16.9002 227.6 15.5002 227.5 12.5002 227.3H12.2002V227.6C12.6002 230.1 12.7002 232.9 12.7002 242.7C12.7002 248 12.6002 260.1 12.5002 261.2V261.4C12.5002 262.5 13.0002 262.6 14.4002 262.6C15.7002 262.6 17.7002 262.4 18.1002 262.1C18.4002 261.9 18.5002 261.6 18.5002 261.1V260.9C18.4002 258.9 18.3002 252 18.3002 249.3V244.8C22.6002 246.1 26.9002 248.1 30.9002 250.8C31.8002 251.5 32.2002 251.1 32.7002 250.1C33.4002 248.8 34.2002 246.7 34.2002 246.2C34.2002 245.7 33.9002 245.4 33.5002 245.2Z" fill="#1E1E1E"/>
<path d="M23.4001 295.4C22.4001 294.7 21.0001 294.3 19.2001 294.3C18.5001 294.3 17.6001 294.4 16.6001 294.5C17.8001 290.1 17.8001 290.1 18.5001 289.1C18.7001 288.8 18.8001 288.5 18.8001 288.3C18.8001 287.8 18.4001 287.4 17.6001 287.1C16.4001 286.6 14.6001 286.2 12.7001 286H12.4001V286.3C12.4001 286.6 12.4001 286.8 12.4001 287C12.4001 288.9 12.0001 291.7 11.1001 295.4C8.4001 295.9 3.9001 296.5 2.2001 296.5H1.1001V296.8C1.7001 300.2 2.4001 301.8 3.5001 301.8C3.7001 301.8 3.9001 301.7 4.1001 301.6C4.4001 301.5 4.5001 301.4 4.8001 301.3C5.1001 301.2 6.1001 301 7.8001 300.6L9.7001 300.2C8.6001 304.4 5.6001 311.3 3.3001 314.7C1.5001 317.5 1.5001 317.5 1.5001 317.8C1.5001 318.3 1.9001 318.6 2.8001 319.2C3.8001 319.9 5.2001 320.6 5.7001 320.6C6.4001 320.6 6.9001 319.9 9.3001 314.9C11.6001 310.1 13.7001 304.5 14.9001 300.1C15.0001 299.9 15.0001 299.8 15.0001 299.6C15.1001 299.4 15.1001 299.3 15.2001 299.1C16.4001 299 17.4001 298.9 18.0001 298.9C20.1001 298.9 20.9001 300 20.9001 303.2C20.9001 306.4 20.6001 309.2 19.9001 311.5C19.0001 314.9 18.2001 315.8 16.3001 315.8C15.0001 315.8 14.5001 315.7 12.2001 314.9L11.7001 314.7L12.0001 315C12.5001 316.1 12.7001 317.1 12.9001 318.3C13.0001 319.9 13.0001 320 13.5001 320.3C14.0001 320.6 15.5001 320.8 17.0001 320.8C19.6001 320.8 21.4001 319.9 22.9001 317.9C24.9001 315.2 26.1001 309.7 26.1001 303.2C26.1001 299.3 25.2001 296.7 23.4001 295.4Z" fill="#1E1E1E"/>
<path d="M33.4003 288.7C34.3003 290 34.3003 290 34.7003 290C34.9003 290 35.2003 289.9 36.2003 289.1C37.1003 288.4 37.4003 288.2 37.4003 287.8C37.4003 286.9 33.7003 283.2 32.8003 283.2C32.2003 283.2 30.3003 284.5 30.3003 285.1C30.3003 285.3 30.4003 285.5 30.6003 285.6C31.4003 286.3 32.7003 287.8 33.4003 288.7Z" fill="#1E1E1E"/>
<path d="M29.6999 292.7C29.8999 293 30.0999 293.1 30.2999 293.1C30.6999 293.1 31.3999 292.6 31.7999 292.3C32.6999 291.6 33.0999 291.3 33.0999 290.9C33.0999 290.1 29.1999 286.2 28.3999 286.2C27.9999 286.2 27.6999 286.4 26.9999 286.9C26.1999 287.5 25.8999 287.8 25.8999 288.1C25.8999 288.2 25.9999 288.4 26.0999 288.5C27.4999 289.7 28.8999 291.4 29.6999 292.7Z" fill="#1E1E1E"/>
<path d="M34.8999 298.6C33.5999 296.7 31.2999 293.9 30.3999 293.9C29.9999 293.9 29.4999 294.2 28.5999 294.8C27.1999 295.9 26.8999 296.3 26.8999 296.6C26.8999 296.9 26.9999 297 27.1999 297.3L27.2999 297.4C29.2999 299.5 29.3999 299.6 30.4999 301.4C31.6999 303.3 32.3999 304.7 33.1999 306.7C33.4999 307.4 33.6999 307.7 34.0999 307.7C34.5999 307.7 35.5999 307 36.3999 306.4C37.6999 305.3 37.9999 305.1 37.9999 304.6C37.9999 303.7 36.2999 300.6 34.8999 298.6Z" fill="#1E1E1E"/>
<path d="M34.8002 343.3C33.1002 341.7 30.3002 339.6 29.6002 339.6C29.2002 339.6 28.9002 339.8 28.2002 340.5C26.3002 342.3 26.2002 342.4 26.2002 342.9C26.2002 343.2 26.4002 343.5 26.8002 343.7C29.7002 345.5 33.2002 349.2 34.7002 351.8C34.9002 352.1 35.1002 352.5 35.6002 352.5C36.0002 352.5 36.3002 352.2 38.0002 350.7C39.2002 349.6 39.4002 349.4 39.4002 348.9C39.4002 348.2 36.9002 345.2 34.8002 343.3Z" fill="#1E1E1E"/>
</g>
<defs>
<clipPath id="clip0_699_12854">
<rect width="39.4" height="352.5" fill="white"/>
</clipPath>
</defs>
</svg>
