<svg xmlns="http://www.w3.org/2000/svg" xmlns:xlink="http://www.w3.org/1999/xlink" width="22.123" height="18" viewBox="0 0 22.123 18">
  <defs>
    <clipPath id="clip-path">
      <rect id="長方形_10665" data-name="長方形 10665" width="22.123" height="18" fill="none"/>
    </clipPath>
  </defs>
  <g id="Logo_FIXED" data-name="Logo — FIXED" transform="translate(11.061 9)">
    <g id="グループ_13095" data-name="グループ 13095" transform="translate(-11.061 -9)" clip-path="url(#clip-path)">
      <path id="パス_13692" data-name="パス 13692" d="M6.913,17.977A12.821,12.821,0,0,0,19.86,5.031c0-.251,0-.377,0-.628a9.3,9.3,0,0,0,2.263-2.388,9.176,9.176,0,0,1-2.64.754A4.525,4.525,0,0,0,21.494.254,9.176,9.176,0,0,1,18.6,1.385,4.525,4.525,0,0,0,10.81,4.528a4.148,4.148,0,0,0,.126,1.006A12.947,12.947,0,0,1,1.508.882,4.525,4.525,0,0,0,2.891,6.916,4.4,4.4,0,0,1,.88,6.288h0a4.525,4.525,0,0,0,3.645,4.525H2.514a4.525,4.525,0,0,0,4.274,3.142,9.176,9.176,0,0,1-5.656,2.011H0a12.7,12.7,0,0,0,6.913,2.011" transform="translate(0 -0.003)"/>
    </g>
  </g>
</svg>
