<svg xmlns="http://www.w3.org/2000/svg" width="138.761" height="46" viewBox="0 0 138.761 46">
  <g id="アートワーク_1" data-name="アートワーク 1" transform="translate(69.381 23)">
    <g id="グループ_12774" data-name="グループ 12774" transform="translate(-69.381 -23)">
      <path id="パス_13515" data-name="パス 13515" d="M5.981,34.038A36.757,36.757,0,0,1,4.35,23.163,37.843,37.843,0,0,1,4.785,17.4a32.081,32.081,0,0,1,1.2-5.111A34.69,34.69,0,0,1,8.047,7.395c.87-1.631,1.74-3.262,2.827-5h.109L7.612,0H7.5A39.475,39.475,0,0,0,0,23.163a37.953,37.953,0,0,0,1.957,12.18A39.693,39.693,0,0,0,7.5,46h.109l3.371-2.284h-.109a33.494,33.494,0,0,1-4.894-9.678Z" transform="translate(0)" fill="#1a1311"/>
      <path id="パス_13516" data-name="パス 13516" d="M126.426,10.866A39.693,39.693,0,0,0,120.88.1h-.109L117.4,2.384h.109a33.494,33.494,0,0,1,4.894,9.787,36.757,36.757,0,0,1,1.631,10.875,38.063,38.063,0,0,1-.435,5.764,32.19,32.19,0,0,1-1.2,5.111,34.582,34.582,0,0,1-2.066,4.894c-.87,1.631-1.74,3.262-2.827,5H117.4l3.371,2.175h.109A39.258,39.258,0,0,0,126.535,34.9a38.823,38.823,0,0,0,1.957-11.853,37.952,37.952,0,0,0-2.066-12.18Z" transform="translate(10.269 0.009)" fill="#1a1311"/>
      <g id="グループ_12773" data-name="グループ 12773" transform="translate(30.341 5.981)">
        <path id="パス_13517" data-name="パス 13517" d="M49.541,28.881,29.857,5.5H27.9V39.864h5.111V16.157l19.9,23.707h1.74V5.5H49.541Z" transform="translate(-27.9 -5.5)" fill="#1a1311"/>
        <path id="パス_13518" data-name="パス 13518" d="M87.038,28.119,73.88,5.5H70.4V39.864h5.111V17.027L86.495,36.058h.979L98.457,17.027V39.864h5.111V5.5h-3.48Z" transform="translate(-24.183 -5.5)" fill="#1a1311"/>
      </g>
    </g>
  </g>
</svg>
