<svg xmlns="http://www.w3.org/2000/svg" width="60" height="60.053" viewBox="0 0 60 60.053"><defs><style>.a{fill:#1c8825;}</style></defs><g transform="translate(0 0.053)"><g transform="translate(0 -1)"><path class="a" d="M52,59H42a1,1,0,0,0,0,2H52a2,2,0,0,0,1.7-3.044L38.937,33.965A1.975,1.975,0,0,0,37.23,33H22.77a1.972,1.972,0,0,0-1.7.956l-14.77,24A2,2,0,0,0,8,61H37a1,1,0,0,0,0-2H8L22.77,35h.662L14.306,54.578A1,1,0,0,0,15.212,56h6a1,1,0,0,0,0-2H16.781l8.858-19h8.723l8.857,19H26.212a1,1,0,0,0,0,2H44.788a1,1,0,0,0,.906-1.422L36.569,35h.66Z"/><path class="a" d="M56,36.1V9.974A5.009,5.009,0,1,0,48.718,8.54l-1.146.919a2.959,2.959,0,0,0-3.515.255C41.25,12.1,33.945,13,30,13s-11.25-.9-14.057-3.286A2.993,2.993,0,0,0,12.43,9.46l-1.148-.92A4.935,4.935,0,0,0,12,6,5,5,0,1,0,4,9.974V36.1A5.009,5.009,0,0,0,0,41v1a2,2,0,0,0,2,2H12a2,2,0,0,0,2-2V41a5.009,5.009,0,0,0-4-4.9V10.076l1.174.941a3,3,0,0,0,.883,3.269C17.448,18.868,28.731,19,30,19s12.552-.132,17.943-4.714a3,3,0,0,0,.883-3.269L50,10.076V36.1A5.009,5.009,0,0,0,46,41v1a2,2,0,0,0,2,2H58a2,2,0,0,0,2-2V41a5.009,5.009,0,0,0-4-4.9ZM54,36H52V10.9a5,5,0,0,0,2,0ZM53,3a3,3,0,1,1-3,3A3,3,0,0,1,53,3ZM7,3A3,3,0,1,1,4,6,3,3,0,0,1,7,3Zm0,8a5,5,0,0,0,1-.1V36H6V10.9A5,5,0,0,0,7,11Zm5,30v1H2V41a3,3,0,0,1,3-3H9A3,3,0,0,1,12,41ZM46.648,12.762C41.8,16.881,31.194,17,30,17s-11.8-.119-16.647-4.238a1,1,0,1,1,1.3-1.524C19.01,14.946,29.891,15,30,15s10.988-.054,15.35-3.762a1,1,0,0,1,1.3,1.524ZM48,42V41a3,3,0,0,1,3-3h4a3,3,0,0,1,3,3v1Z"/></g></g></svg>