<svg xmlns="http://www.w3.org/2000/svg" width="58.264" height="53.488" viewBox="0 0 58.264 53.488"><defs><style>.a{fill:#1c8825;}</style></defs><g transform="translate(-16 -56)"><path class="a" d="M73.309,56H16.955a.955.955,0,0,0-.955.955v51.578a.955.955,0,0,0,.955.955h2.865a.955.955,0,0,0,.955-.955V60.776H37.013V64.6H25.551a.955.955,0,0,0-.955.955V98.026a.955.955,0,0,0,.955.955H69.488a.955.955,0,0,0,.955-.955V65.551a.955.955,0,0,0-.955-.955H58.026V60.776H73.309a.955.955,0,0,0,.955-.955V56.955A.955.955,0,0,0,73.309,56ZM68.533,66.507V97.071H26.507V66.507H37.013v1.91a.955.955,0,0,0,1.91,0v-1.91H56.116v1.91a.955.955,0,0,0,1.91,0v-1.91ZM38.923,64.6V60.776H56.116V64.6Zm33.43-5.731H19.821a.955.955,0,0,0-.955.955v47.757H17.91V57.91H72.354Z"/><path class="a" d="M133.372,336H120.955a.955.955,0,0,0,0,1.91h12.417a.955.955,0,0,0,0-1.91Z" transform="translate(-91.583 -246.57)"/><path class="a" d="M135.282,312H120.955a.955.955,0,1,0,0,1.91h14.327a.955.955,0,0,0,0-1.91Z" transform="translate(-91.583 -225.435)"/><path class="a" d="M123.821,360h-2.865a.955.955,0,1,0,0,1.91h2.865a.955.955,0,0,0,0-1.91Z" transform="translate(-91.583 -267.704)"/><path class="a" d="M169.91,360h-.955a.955.955,0,1,0,0,1.91h.955a.955.955,0,1,0,0-1.91Z" transform="translate(-133.852 -267.704)"/><path class="a" d="M120,192.955v11.462a.955.955,0,0,0,.955.955h36.3a.955.955,0,0,0,.955-.955V192.955a.955.955,0,0,0-.955-.955h-36.3A.955.955,0,0,0,120,192.955Zm1.91.955H156.3v9.551H121.91Z" transform="translate(-91.583 -119.763)"/></g></svg>