<svg xmlns="http://www.w3.org/2000/svg" width="60.695" height="64.777" viewBox="0 0 60.695 64.777"><defs><style>.a{fill:#1c8825;}</style></defs><g transform="translate(-16.134)"><g transform="translate(16.134 0)"><path class="a" d="M115.042,15.867a23.312,23.312,0,0,0-2.211-1.384V11.866a2.711,2.711,0,0,0-2.708-2.709h-5.047V3.373a3.374,3.374,0,0,0-6.747,0V9.157H93.283a2.711,2.711,0,0,0-2.709,2.709v2.617a23.346,23.346,0,0,0-2.211,1.384c-8.246,5.794-11.268,15.455-7.52,24.041a.948.948,0,0,0,1.738-.759,16.654,16.654,0,0,1-.724-11.562,19.2,19.2,0,0,1,7.6-10.168,20.57,20.57,0,0,1,2.293-1.412H95.3A27.693,27.693,0,0,0,90.29,32.379,27.693,27.693,0,0,0,95.3,48.751H91.747a20.584,20.584,0,0,1-2.293-1.412,20.916,20.916,0,0,1-4.783-4.6.948.948,0,1,0-1.521,1.132,22.809,22.809,0,0,0,5.214,5.023,23.3,23.3,0,0,0,2.211,1.384v2.617A2.712,2.712,0,0,0,93.283,55.6h4.18v7.9a1.275,1.275,0,0,0,2.076.992l2.164-1.747,2.164,1.747a1.275,1.275,0,0,0,2.076-.993V55.6h4.18a2.711,2.711,0,0,0,2.708-2.709V50.275a23.327,23.327,0,0,0,2.211-1.384c5.786-4.066,9.1-10.084,9.1-16.512s-3.318-12.446-9.1-16.512ZM100.226,3.373a1.477,1.477,0,0,1,2.954,0V9.157h-2.954V3.373ZM92.471,14.111V11.866a.813.813,0,0,1,.812-.812h16.84a.813.813,0,0,1,.812.812v2.244ZM104.046,62.2,102.3,60.79a.948.948,0,0,0-1.191,0L99.359,62.2V55.6h4.687Zm6.889-9.309a.813.813,0,0,1-.812.812H93.283a.813.813,0,0,1-.812-.812V50.648h18.464Zm3.017-5.552a20.581,20.581,0,0,1-2.293,1.412H108.1a27.694,27.694,0,0,0,5.014-16.372,29.667,29.667,0,0,0-1.44-9.242.948.948,0,1,0-1.8.59,27.774,27.774,0,0,1,1.345,8.652,25.382,25.382,0,0,1-5.543,16.372H97.73a25.382,25.382,0,0,1-5.543-16.372,25.382,25.382,0,0,1,5.543-16.372h7.948a20.278,20.278,0,0,1,2.54,3.8.948.948,0,1,0,1.678-.884,24.169,24.169,0,0,0-1.8-2.913h3.566a20.589,20.589,0,0,1,2.293,1.412c5.274,3.705,8.3,9.158,8.3,14.961S119.225,43.634,113.952,47.34Z" transform="translate(-71.267 0)"/><path class="a" d="M409.76,45.375a3.953,3.953,0,1,0,3.953,3.952A3.957,3.957,0,0,0,409.76,45.375Zm0,6.009a2.056,2.056,0,1,1,2.056-2.056A2.059,2.059,0,0,1,409.76,51.384Z" transform="translate(-356.506 -39.634)"/><path class="a" d="M430.5,20.225a.948.948,0,0,0,.948-.948v-.531a.948.948,0,1,0-1.9,0v.531A.948.948,0,0,0,430.5,20.225Z" transform="translate(-377.248 -15.545)"/><path class="a" d="M430.5,116.243a.948.948,0,0,0-.948.948v.531a.948.948,0,1,0,1.9,0v-.531A.948.948,0,0,0,430.5,116.243Z" transform="translate(-377.248 -101.536)"/><path class="a" d="M393.917,34.824a.948.948,0,0,0,1.341-1.341l-.376-.376a.948.948,0,0,0-1.341,1.341Z" transform="translate(-345.55 -28.676)"/><path class="a" d="M464.493,102.718a.948.948,0,0,0-1.341,1.341l.376.376a.948.948,0,0,0,1.341-1.341Z" transform="translate(-406.353 -89.479)"/><path class="a" d="M379.179,71.016h.531a.948.948,0,1,0,0-1.9h-.531a.948.948,0,1,0,0,1.9Z" transform="translate(-332.419 -60.374)"/><path class="a" d="M478.157,69.12h-.531a.948.948,0,1,0,0,1.9h.531a.948.948,0,1,0,0-1.9Z" transform="translate(-418.409 -60.375)"/><path class="a" d="M393.541,103.095a.948.948,0,1,0,1.341,1.341l.376-.376a.948.948,0,1,0-1.341-1.341Z" transform="translate(-345.549 -89.48)"/><path class="a" d="M463.823,35.1a.946.946,0,0,0,.671-.278l.376-.376a.948.948,0,0,0-1.341-1.341l-.376.376a.948.948,0,0,0,.67,1.619Z" transform="translate(-406.353 -28.676)"/><path class="a" d="M47.664,404.133a3.953,3.953,0,1,0,3.953,3.953A3.957,3.957,0,0,0,47.664,404.133Zm0,6.009a2.056,2.056,0,1,1,2.056-2.056A2.059,2.059,0,0,1,47.664,410.142Z" transform="translate(-40.222 -353.002)"/><path class="a" d="M68.405,378.985a.948.948,0,0,0,.948-.948v-.531a.948.948,0,0,0-1.9,0v.531A.948.948,0,0,0,68.405,378.985Z" transform="translate(-60.964 -328.915)"/><path class="a" d="M68.405,475a.948.948,0,0,0-.948.948v.531a.948.948,0,1,0,1.9,0v-.531A.948.948,0,0,0,68.405,475Z" transform="translate(-60.964 -414.906)"/><path class="a" d="M31.821,393.584a.948.948,0,1,0,1.341-1.341l-.376-.376a.948.948,0,0,0-1.341,1.341Z" transform="translate(-29.265 -342.046)"/><path class="a" d="M102.4,461.478a.948.948,0,0,0-1.341,1.341l.376.376a.948.948,0,0,0,1.341-1.341Z" transform="translate(-90.069 -402.85)"/><path class="a" d="M18.562,428.828a.948.948,0,0,0-.948-.948h-.531a.948.948,0,0,0,0,1.9h.531A.948.948,0,0,0,18.562,428.828Z" transform="translate(-16.134 -373.745)"/><path class="a" d="M116.059,427.88h-.531a.948.948,0,0,0,0,1.9h.531a.948.948,0,0,0,0-1.9Z" transform="translate(-102.124 -373.745)"/><path class="a" d="M31.821,461.478l-.376.376a.948.948,0,1,0,1.341,1.341l.376-.376a.948.948,0,1,0-1.341-1.341Z" transform="translate(-29.265 -402.849)"/><path class="a" d="M102.4,393.583l.376-.376a.948.948,0,0,0-1.341-1.341l-.376.376a.948.948,0,1,0,1.341,1.341Z" transform="translate(-90.069 -342.045)"/></g></g></svg>