<svg xmlns="http://www.w3.org/2000/svg" width="42.414" height="58.615" viewBox="0 0 42.414 58.615"><defs><style>.a{fill:#1c8825;}</style></defs><g transform="translate(-41.6)"><g transform="translate(41.6)"><g transform="translate(0)"><path class="a" d="M83.419,23.074,81.546,22.3a7.465,7.465,0,0,1-3.063-3.139l-.152-.3a7.671,7.671,0,0,1-.721-3.1V.949A.956.956,0,0,0,76.66,0h-6.4a.956.956,0,0,0-.949.949V8.037A6.485,6.485,0,0,1,67.231,13a6.07,6.07,0,0,1-4.582,1.658h-.076a6.553,6.553,0,0,1-4.582-2.05l-.038-.038a5.272,5.272,0,0,1-1.645-4.443V.962a.956.956,0,0,0-.949-.949h-6.4A.956.956,0,0,0,48,.962V15.771a6.162,6.162,0,0,1-.747,3.139c0,.013-.013.013-.013.025l-.089.165c0,.013-.013.013-.013.025a7.123,7.123,0,0,1-3.24,3.19l-1.747.785a.93.93,0,0,0-.557.861V57.666a.956.956,0,0,0,.949.949h40.5a.976.976,0,0,0,.962-.949V23.947A.963.963,0,0,0,83.419,23.074ZM82.1,56.717H43.511V24.567l1.2-.532a.044.044,0,0,1,.025-.013,9.108,9.108,0,0,0,4.1-4.038l.076-.139a8.033,8.033,0,0,0,.987-4.076V1.911h4.506v6.1A7.222,7.222,0,0,0,56.6,13.9a8.453,8.453,0,0,0,5.936,2.658,7.965,7.965,0,0,0,5.949-2.126A8.347,8.347,0,0,0,71.205,8.05V1.911h4.506v13.86a9.513,9.513,0,0,0,.886,3.886c.013.013.013.038.025.051l.165.329A9.306,9.306,0,0,0,80.673,24a.379.379,0,0,0,.1.051l1.329.544Z" transform="translate(-41.6)"/><path class="a" d="M200.178,106.289a11.244,11.244,0,0,1-3.848-3.8l-.127-.177a.951.951,0,0,0-1.532,1.126l.127.177a12.747,12.747,0,0,0,4.544,4.367.847.847,0,0,0,.418.1.928.928,0,0,0,.848-.532A.947.947,0,0,0,200.178,106.289Z" transform="translate(-164.712 -82.076)"/><path class="a" d="M107.3,150.59a.958.958,0,0,0-1.013.152l-4.329,3.784a.951.951,0,1,0,1.253,1.43l2.747-2.4V168.31a.949.949,0,1,0,1.9,0V151.451A.943.943,0,0,0,107.3,150.59Z" transform="translate(-89.943 -121.2)"/><path class="a" d="M162.236,150.593a.954.954,0,0,0-1.025.165l-4.164,3.784a.95.95,0,0,0,1.278,1.4l2.569-2.342v14.708a.956.956,0,0,0,1.911.013V151.466A.959.959,0,0,0,162.236,150.593Z" transform="translate(-134.315 -121.203)"/><circle class="a" cx="0.949" cy="0.949" r="0.949" transform="translate(36.554 25.555)"/></g></g></g></svg>