<svg xmlns="http://www.w3.org/2000/svg" width="65.211" height="62.127" viewBox="0 0 65.211 62.127"><defs><style>.a{fill:#1c8825;}</style></defs><g transform="translate(0 -12.108)"><path class="a" d="M39.285,22.4a6.6,6.6,0,0,1-.733,3.033,7.181,7.181,0,0,1,5.838,7.033v6.358h3.455a3.917,3.917,0,0,1,0,7.834H45.408v6.971H62.4a.9.9,0,0,0,.9-.9v-30.9a.9.9,0,0,0-.9-.9H39.285Zm-1.91-1.867A7.354,7.354,0,0,1,31.2,18.9a5.443,5.443,0,0,1-3.365.791V22.4a4.767,4.767,0,0,0,9.535,0ZM27.84,17.773a3.482,3.482,0,0,0,2.852-.834.954.954,0,0,1,1.343.1,5.438,5.438,0,0,0,5.34,1.567V16.267a2.256,2.256,0,0,0-2.249-2.249h-5.04a2.256,2.256,0,0,0-2.246,2.249ZM43.5,46.659h-8.73a.957.957,0,0,1,0-1.914H47.845a2.006,2.006,0,0,0,0-4.011H17.366a2.006,2.006,0,0,0,0,4.011H30.443a.957.957,0,0,1,0,1.914H21.716V71.426a.9.9,0,0,0,.9.9h7.827a.955.955,0,1,1,0,1.91H22.615a2.81,2.81,0,0,1-2.809-2.809V55.54h-17A2.817,2.817,0,0,1,0,52.731v-30.9a2.823,2.823,0,0,1,2.809-2.812H25.926V16.267a4.173,4.173,0,0,1,4.159-4.159h5.04a4.167,4.167,0,0,1,4.159,4.159v2.751H62.4a2.817,2.817,0,0,1,2.809,2.812v30.9A2.811,2.811,0,0,1,62.4,55.54H45.408V71.426A2.817,2.817,0,0,1,42.6,74.235H34.768a.955.955,0,0,1,0-1.91H42.6a.906.906,0,0,0,.9-.9V46.659Zm-23.691,0H17.366a3.917,3.917,0,0,1,0-7.834h3.459V32.467a7.181,7.181,0,0,1,5.838-7.033,6.6,6.6,0,0,1-.737-3.033V20.932H2.809a.893.893,0,0,0-.632.264.883.883,0,0,0-.267.635v30.9a.906.906,0,0,0,.9.9h17Zm8.434,3.935h8.733a2.817,2.817,0,0,1,2.809,2.812V65.577a2.81,2.81,0,0,1-2.809,2.809H28.241a2.817,2.817,0,0,1-2.813-2.809V53.407a2.823,2.823,0,0,1,2.813-2.812Zm8.733,1.914H28.241a.9.9,0,0,0-.9.9V65.577a.908.908,0,0,0,.264.635.9.9,0,0,0,.635.264h8.733a.906.906,0,0,0,.9-.9V53.407a.883.883,0,0,0-.267-.635A.893.893,0,0,0,36.974,52.508Zm20.684-5.683a.955.955,0,1,1,1.91,0v1.163H60.73a.955.955,0,0,1,0,1.91H59.568V51.06a.955.955,0,0,1-1.91,0V49.9H56.5a.955.955,0,1,1,0-1.91h1.163ZM9.3,25.036a.957.957,0,0,1,1.914,0v3.282h3.278a.955.955,0,0,1,0,1.91H11.21v3.278a.957.957,0,0,1-1.914,0V30.228H6.019a.955.955,0,0,1,0-1.91H9.3Zm25.179,3.773L36.1,33.6a.953.953,0,0,1-.278,1.025l-2.567,2.386a.953.953,0,0,1-1.3,0l-2.589-2.408a.953.953,0,0,1-.256-1l1.628-4.795A6.672,6.672,0,0,1,28,27.224a5.264,5.264,0,0,0-5.264,5.242v6.358h2.9V32.192a.955.955,0,1,1,1.91,0v6.632h10.12V32.192a.955.955,0,1,1,1.91,0v6.632h2.9V32.467a5.263,5.263,0,0,0-5.264-5.242A6.691,6.691,0,0,1,34.476,28.809ZM34.1,33.633l-1.491-4.4-1.491,4.4,1.491,1.383Z"/></g></svg>