<svg xmlns="http://www.w3.org/2000/svg" width="56.699" height="56.699" viewBox="0 0 56.699 56.699"><defs><style>.a{fill:#1c8825;}</style></defs><path class="a" d="M44.811,5.279V0H11.889V5.279A28.522,28.522,0,0,0,7.508,9.145H2.744a2.744,2.744,0,1,0,0,5.487h.8A28.349,28.349,0,1,0,44.811,5.279ZM54.87,28.35a26.467,26.467,0,0,1-.915,6.895V33.163A3.675,3.675,0,0,0,51.3,29.645l-3.749-1.07V27.412a4.554,4.554,0,0,0,1.829-3.634V21.949a4.578,4.578,0,0,0-4.573-4.573V7.559A26.535,26.535,0,0,1,54.87,28.35ZM50.3,41.153h1.268q-.589,1.063-1.268,2.067ZM4.216,39.324c-.273-.6-.531-1.207-.761-1.829h49.79c-.23.622-.488,1.23-.761,1.829Zm2.186,3.9q-.681-1-1.268-2.067H6.4ZM6.4,12.8V10.974H8.231V12.8Zm3.658-1.829H25.329l1.372.915-1.372.915H10.06Zm22.863,2.744h6.339a7.324,7.324,0,0,1-6.339,6.339Zm0-1.829V5.55a7.324,7.324,0,0,1,6.339,6.339Zm-1.829,6.425a4.5,4.5,0,0,0-4.493-.587,7.288,7.288,0,0,1-1.67-3.094h.953L30,11.889,25.883,9.145h-.2a7.317,7.317,0,0,1,5.408-3.586Zm13.718.891a2.747,2.747,0,0,1,2.744,2.744v1.829a2.744,2.744,0,1,1-5.487,0V21.948A2.747,2.747,0,0,1,44.811,19.2Zm0,9.145a4.577,4.577,0,0,0,.915-.092v.628l-.915.915-.915-.915v-.628A4.577,4.577,0,0,0,44.811,28.35Zm-2.1,1.942,2.1,2.1,2.1-2.1L50.8,31.4a1.837,1.837,0,0,1,1.327,1.759v2.5H50.3V33.837H48.469v1.829H41.153V33.837H39.324v1.829H37.495v-2.5A1.837,1.837,0,0,1,38.821,31.4Zm-7.05,5.374H33.837V33.837H32.008v1.829H24.692V33.837H22.863v1.829H21.034v-2.5A1.837,1.837,0,0,1,22.36,31.4l3.895-1.113,2.1,2.1,2.1-2.1L34.339,31.4a1.837,1.837,0,0,1,1.327,1.759Zm-6.4-6.78-.915.915-.915-.915v-.628a4.57,4.57,0,0,0,1.829,0Zm-.915-2.365a2.747,2.747,0,0,1-2.744-2.744V21.948a2.744,2.744,0,0,1,5.487,0v1.829A2.747,2.747,0,0,1,28.35,26.521Zm-5.3-11.889a9.07,9.07,0,0,0,.586,1.829H17.376V18.29h7.316v-.006c.123.163.255.322.389.477a4.562,4.562,0,0,0-.916,1.358H17.376v1.829h6.4v1.829a4.552,4.552,0,0,0,1.829,3.634v1.162l-3.749,1.07a3.635,3.635,0,0,0-1.738,1.121,3.635,3.635,0,0,0-1.738-1.121l-3.749-1.069V27.412a4.554,4.554,0,0,0,1.829-3.634V21.949a4.576,4.576,0,0,0-2.744-4.185V14.632Zm-8.415,7.316v1.829a2.744,2.744,0,1,1-5.487,0V21.948a2.744,2.744,0,0,1,5.487,0Zm-2.744,6.4a4.577,4.577,0,0,0,.915-.092v.628l-.915.915-.915-.915v-.628A4.577,4.577,0,0,0,11.889,28.35Zm-2.1,1.942,2.1,2.1,2.1-2.1L17.877,31.4A1.837,1.837,0,0,1,19.2,33.163v2.5H17.376V33.837H15.547v1.829H8.231V33.837H6.4v1.829H4.573v-2.5A1.837,1.837,0,0,1,5.9,31.4ZM42.982,1.829V17.763a4.576,4.576,0,0,0-2.744,4.185v1.829a4.552,4.552,0,0,0,1.829,3.634v1.162l-3.749,1.07a3.635,3.635,0,0,0-1.738,1.121,3.635,3.635,0,0,0-1.738-1.121l-3.749-1.069V27.412a4.554,4.554,0,0,0,1.829-3.634V21.949c0-.016,0-.03,0-.046A9.145,9.145,0,1,0,23.626,9.145H13.718V1.829ZM11.889,7.561V9.145H10.075C10.657,8.592,11.259,8.06,11.889,7.561ZM1.829,11.889a.916.916,0,0,1,.915-.915H4.573V12.8H2.744A.916.916,0,0,1,1.829,11.889Zm3.834,2.744h6.226v2.744a4.578,4.578,0,0,0-4.573,4.573v1.829a4.552,4.552,0,0,0,1.829,3.634v1.162L5.4,29.644a3.676,3.676,0,0,0-2.653,3.519v2.081A26.455,26.455,0,0,1,5.663,14.632ZM28.35,54.87A26.462,26.462,0,0,1,8.231,45.6v-.788H41.153V42.982H8.231V41.153H48.469v1.829H42.982v1.829h5.487V45.6A26.462,26.462,0,0,1,28.35,54.87Zm0,0"/><path class="a" d="M136,32h1.829v1.829H136Zm0,0" transform="translate(-120.453 -28.342)"/><path class="a" d="M168,32h1.829v1.829H168Zm0,0" transform="translate(-148.795 -28.342)"/><path class="a" d="M200,32h1.829v1.829H200Zm0,0" transform="translate(-177.137 -28.342)"/></svg>