<svg xmlns="http://www.w3.org/2000/svg" width="61.181" height="55.804" viewBox="0 0 61.181 55.804"><defs><style>.a{fill:#1c8825;}</style></defs><g transform="translate(36.685 0)"><path class="a" d="M325.41,39.274a3.3,3.3,0,0,0-2.008-2.221,6.258,6.258,0,0,0,2.12-4.7V28.772a6.273,6.273,0,1,0-12.547,0v3.585a6.259,6.259,0,0,0,2.12,4.7,3.3,3.3,0,0,0-2.008,2.221,6.869,6.869,0,0,0-.054,13.643,6.257,6.257,0,0,0,1.734,3.541V75.566l-2.972.991a.9.9,0,1,0,.567,1.7l3.585-1.195a.9.9,0,0,0,.613-.85V57.741a6.262,6.262,0,0,0,5.377,0V75.566l-2.972.991a.9.9,0,1,0,.567,1.7l3.585-1.195a.9.9,0,0,0,.613-.85V56.458a6.257,6.257,0,0,0,1.734-3.541,6.869,6.869,0,0,0-.054-13.643ZM312.975,51.1a5.077,5.077,0,0,1,0-10Zm1.792-22.324a4.481,4.481,0,0,1,8.962,0v.3H321.92a3.585,3.585,0,0,0-5.344,0h-1.809Zm0,3.585V30.864h2.245a.9.9,0,0,0,.745-.4,1.793,1.793,0,0,1,2.982,0,.9.9,0,0,0,.745.4h2.245v1.494a4.481,4.481,0,0,1-8.962,0Zm5.945,6.273-1.464,2.636-1.464-2.636Zm-1.464,17.924a4.489,4.489,0,0,1-4.391-3.585h8.782A4.489,4.489,0,0,1,319.248,56.555Zm4.481-5.377h-3.585V46.7a.9.9,0,1,0-1.792,0v4.482h-3.585V40.124a1.5,1.5,0,0,1,1.011-1.412l2.686,4.835a.9.9,0,0,0,1.567,0l2.686-4.835a1.5,1.5,0,0,1,1.012,1.412Zm1.792-.081v-10a5.077,5.077,0,0,1,0,10Z" transform="translate(-307 -22.499)"/></g><g transform="translate(0 3.346)"><path class="a" d="M32.8,50.5H.9a.9.9,0,0,0-.9.9V64.062a.9.9,0,0,0,1.792,0V52.291H31.905v23.54H27.3V69.973a.9.9,0,0,0-.282-.652l-4.5-4.238V63.068c0-.009,0-.017,0-.026s0-.034,0-.051,0-.025,0-.038,0-.034-.008-.052l-.007-.035c0-.018-.009-.035-.014-.053l-.01-.032c-.006-.018-.013-.035-.02-.053l-.013-.03c-.008-.017-.016-.034-.025-.05l-.017-.031c-.009-.015-.018-.03-.028-.045l-.022-.032-.03-.039-.028-.033-.013-.015-.02-.019-.018-.018-4.78-4.5a.9.9,0,0,0-1.229,0l-4.78,4.5-.017.018-.02.019-.013.015-.028.033-.03.039-.022.032c-.01.015-.019.03-.028.045l-.017.031c-.009.016-.017.033-.025.05l-.013.03c-.007.017-.014.035-.02.053l-.01.032c-.005.017-.01.035-.014.053s-.005.023-.007.035-.006.034-.008.052,0,.025,0,.038,0,.034,0,.051,0,.017,0,.026v5.017l-4.5,4.238a.9.9,0,0,0-.282.652v2.857h-4.6V67.646a.9.9,0,0,0-1.792,0v34.414a.9.9,0,0,0,.9.9H32.8a.9.9,0,0,0,.9-.9V51.4A.9.9,0,0,0,32.8,50.5ZM22.525,67.546l2.987,2.814v5.472H22.525ZM16.849,59.8l3.473,3.272L16.849,66.34l-3.473-3.272Zm-3.884,5.348,2.987,2.815v1.405a.9.9,0,1,0,1.792,0V67.958l2.987-2.815V75.832H17.745V72.949a.9.9,0,0,0-1.792,0v2.883H12.965Zm-4.78,8.218,2.987-2.814v5.284H8.185Zm23.72,27.8H1.792V81.209H31.905Zm0-21.748H1.792V77.624H31.905Z" transform="translate(0 -50.499)"/></g><g transform="translate(15.953 35.848)"><path class="a" d="M146.764,322.5H134.4a.9.9,0,0,0-.9.9v5.377a.9.9,0,0,0,.9.9h12.368a.9.9,0,0,0,.9-.9V323.4A.9.9,0,0,0,146.764,322.5Zm-.9,5.377H135.292v-3.585h10.575Z" transform="translate(-133.5 -322.499)"/></g></svg>