<svg xmlns="http://www.w3.org/2000/svg" width="44" height="64.005" viewBox="0 0 44 64.005"><defs><style>.a{fill:#1c8825;}</style></defs><g transform="translate(-10 0)"><path class="a" d="M10,41.688a16.977,16.977,0,0,0,7.593,14.159L29.227,63.16a5.009,5.009,0,0,0,2.78.844,4.945,4.945,0,0,0,2.744-.829L46.43,55.832A16.966,16.966,0,0,0,54,41.688a1,1,0,0,0-1-1,.988.988,0,0,0-.939.7L45.5,45.132a1,1,0,1,0,.992,1.736l5.348-3.056a14.943,14.943,0,0,1-6.5,10.341L33.664,61.5a3,3,0,0,1-3.351-.015L18.68,54.168a14.963,14.963,0,0,1-6.524-10.356L17.5,46.868a1,1,0,0,0,.992-1.736L12,41.42v-4.5l8.427,5.9a1,1,0,1,0,1.146-1.639L12,34.479V30a1,1,0,0,0-2,0Z"/><path class="a" d="M11,27a1,1,0,0,0,1-1A15.016,15.016,0,0,1,27,11H37A15.016,15.016,0,0,1,52,26v8.479l-9.573,6.7a1,1,0,1,0,1.146,1.639L52,36.921V37a1,1,0,0,0,2,0V26a16.894,16.894,0,0,0-3.04-9.675A15.994,15.994,0,0,0,50.867.5a.984.984,0,0,0-.889-.5,17.167,17.167,0,0,0-9.564,3.189A16.916,16.916,0,0,0,35.388,9H28.612a16.916,16.916,0,0,0-5.026-5.811A17.185,17.185,0,0,0,14.022,0a1.064,1.064,0,0,0-.89.5,15.972,15.972,0,0,0-.089,15.817A16.893,16.893,0,0,0,10,26,1,1,0,0,0,11,27ZM41.586,4.811a15.1,15.1,0,0,1,7.835-2.784,13.967,13.967,0,0,1,.172,12.594,17.066,17.066,0,0,0-5.149-3.88L46.8,7.6a1,1,0,0,0-1.6-1.2L42.541,9.946a16.884,16.884,0,0,0-4.869-.912,14.822,14.822,0,0,1,3.914-4.223ZM13,8.033a14.107,14.107,0,0,1,1.58-6.007A15.121,15.121,0,0,1,22.415,4.81a14.822,14.822,0,0,1,3.914,4.224,16.884,16.884,0,0,0-4.869.912L18.8,6.4a1,1,0,1,0-1.6,1.2l2.355,3.141a17.067,17.067,0,0,0-5.148,3.879A14.01,14.01,0,0,1,13,8.033Z"/><path class="a" d="M25.52,51.448A5.015,5.015,0,0,0,32,50.115a4.981,4.981,0,0,0,6.48,1.333l1.016-.58a1,1,0,0,0,.211-.161l2-2-1.414-1.414-1.9,1.907-.9.514A3,3,0,0,1,33,47.107V42H31v5.107a3,3,0,0,1-4.488,2.6L25.448,49.1l-2-1-.9,1.789,1.951.974Z"/><path class="a" d="M27,22a1,1,0,0,0,0-2H23a1,1,0,0,0,0,2Z"/><path class="a" d="M36,21a1,1,0,0,0,1,1h4a1,1,0,0,0,0-2H37A1,1,0,0,0,36,21Z"/><path class="a" d="M15.345,24.244a1,1,0,0,0-.328.935C15.037,25.3,17.273,36.933,27.9,38H28a1,1,0,0,0,1-1V34.045a7.99,7.99,0,0,0-5.47-7.589l-7.214-2.4a.992.992,0,0,0-.971.188ZM22.9,28.353A5.993,5.993,0,0,1,27,34.045v1.8c-6.1-1.161-8.632-6.506-9.556-9.312Z"/><path class="a" d="M48.983,25.179a1,1,0,0,0-1.3-1.127l-7.214,2.4A7.99,7.99,0,0,0,35,34.045V37a1,1,0,0,0,1,1h.1c10.627-1.067,12.863-12.7,12.883-12.821ZM37,35.847v-1.8a5.993,5.993,0,0,1,4.1-5.692l5.453-1.817c-.921,2.8-3.453,8.148-9.553,9.309Z"/><path class="a" d="M37,14H36a1,1,0,0,0,0,2h1a1,1,0,0,0,0-2Z"/><path class="a" d="M41,16a1,1,0,0,0,0-2H40a1,1,0,0,0,0,2Z"/></g></svg>