<svg xmlns="http://www.w3.org/2000/svg" width="63.475" height="61.45" viewBox="0 0 63.475 61.45"><defs><style>.a{fill:#1c8825;}</style></defs><g transform="translate(0 -8.167)"><path class="a" d="M3.395,46.093a4.088,4.088,0,0,0,7.925-1.4V42.417a4.684,4.684,0,0,1-2.207-.359,7.606,7.606,0,0,1-.19.752,4.891,4.891,0,0,1-1.553,2.435,4.534,4.534,0,0,1-3.2.928,6.971,6.971,0,0,1-.773-.081ZM27.482,40h8.174V37.434H29.362a1.89,1.89,0,0,0-1.88,1.88Zm8.174,1.859H27.482V44.69a4.087,4.087,0,0,0,8.174,0V41.862Zm25.479,6.206a4.428,4.428,0,0,1,1.3,1.047,4.355,4.355,0,0,1,1.04,2.825V58.21a.93.93,0,0,1-1.859,0V51.94a2.511,2.511,0,0,0-.6-1.627,2.554,2.554,0,0,0-1.286-.815,5.917,5.917,0,0,1-7.078-.074,1.776,1.776,0,0,0-.548.155,1.7,1.7,0,0,0-.633.516L46.48,56.709a.934.934,0,0,1-.741.373h-6.4a1.713,1.713,0,1,0,0,3.426h7.643a1.67,1.67,0,0,0,.833-.179,5.507,5.507,0,0,0,1.416-1.585l3.307-4.375a.927.927,0,1,1,1.479,1.118l-3.145,4.168v8.1H61.616V62.42a.93.93,0,0,1,1.859,0v6.269a.927.927,0,0,1-.928.928H.931A.93.93,0,0,1,0,68.689V62.42a.93.93,0,0,1,1.859,0v5.338H12.606v-8.1L9.457,55.486a.929.929,0,0,1,1.483-1.118l3.233,4.28q.443.585.886,1.177a1.711,1.711,0,0,0,.6.5,1.626,1.626,0,0,0,.777.179h7.7a1.713,1.713,0,1,0,0-3.426h-6.4A.928.928,0,0,1,17,56.709L12,50.1a1.719,1.719,0,0,0-1.181-.671,5.924,5.924,0,0,1-7.078.077,2.548,2.548,0,0,0-1.272.794,2.517,2.517,0,0,0-.612,1.645V58.21A.93.93,0,0,1,0,58.21V51.941a4.368,4.368,0,0,1,1.068-2.857,4.475,4.475,0,0,1,1.276-1.016,5.9,5.9,0,0,1-1.058-3.377V39.314a3.743,3.743,0,0,1,3.736-3.739H9.439a3.744,3.744,0,0,1,3.739,3.739v5.377a5.907,5.907,0,0,1-.963,3.237,3.6,3.6,0,0,1,1.269,1.051L18.2,55.219h3.721V51.449A3.878,3.878,0,0,1,23.4,48.6a9.772,9.772,0,0,1,2.678-1.62,5.9,5.9,0,0,1-.457-2.284V39.314a3.744,3.744,0,0,1,3.739-3.739h7.225a.933.933,0,0,1,.931.931v8.185a5.947,5.947,0,0,1-.411,2.168,10.119,10.119,0,0,1,2.875,1.652,3.939,3.939,0,0,1,1.574,2.938v3.771h3.721l4.713-6.241a3.56,3.56,0,0,1,1.272-1.047,5.9,5.9,0,0,1-.967-3.24V39.314a3.744,3.744,0,0,1,3.739-3.739h4.418a3.743,3.743,0,0,1,3.739,3.739v5.377a5.924,5.924,0,0,1-1.058,3.377ZM60.08,46.093a6.887,6.887,0,0,1-.773.081,4.531,4.531,0,0,1-3.2-.928,4.872,4.872,0,0,1-1.557-2.435,7.6,7.6,0,0,1-.186-.752,4.7,4.7,0,0,1-2.21.359v2.274a4.088,4.088,0,0,0,7.925,1.4Zm-7.925-5.538a3.03,3.03,0,0,0,2.309-.685.94.94,0,0,1,.6-.26.925.925,0,0,1,.97.882,7.407,7.407,0,0,0,.288,1.775,3.079,3.079,0,0,0,.942,1.536,2.788,2.788,0,0,0,1.951.52,6.694,6.694,0,0,0,1.114-.162V39.314a1.9,1.9,0,0,0-1.88-1.88H54.036a1.9,1.9,0,0,0-1.88,1.88Zm-40.836,0V39.314a1.89,1.89,0,0,0-1.88-1.88H5.022a1.89,1.89,0,0,0-1.877,1.88V44.16a6.618,6.618,0,0,0,1.111.162,2.788,2.788,0,0,0,1.95-.52,3.109,3.109,0,0,0,.945-1.536,7.231,7.231,0,0,0,.285-1.775A.93.93,0,0,1,9,39.862a3.032,3.032,0,0,0,2.316.692Zm15.755,8.02a8.075,8.075,0,0,0-2.439,1.4,2.121,2.121,0,0,0-.858,1.472v3.771h.362a3.573,3.573,0,0,1,3.135,5.289H36.2a3.577,3.577,0,0,1,3.138-5.289H39.7V51.449a2.19,2.19,0,0,0-.921-1.529,8.645,8.645,0,0,0-2.629-1.444c-.12.144-.246.285-.376.415a5.926,5.926,0,0,1-8.4,0q-.153-.153-.3-.316ZM7.749,15.051a.93.93,0,0,1,0-1.859H24.962a.93.93,0,0,1,0,1.859Zm0,9.784a.931.931,0,0,1,0-1.863h8.607a.931.931,0,0,1,0,1.863Zm0-4.892a.93.93,0,0,1,0-1.859H24.962a.93.93,0,0,1,0,1.859Zm18.165,9.914a2.57,2.57,0,0,0,.6.949,2.6,2.6,0,0,0,1.852.77h5.465a.93.93,0,0,1,0,1.859H28.367A4.441,4.441,0,0,1,25.2,32.113a4.519,4.519,0,0,1-1.216-2.256H11.021l-4.21,4.21a.932.932,0,0,1-1.592-.654V29.78A5.657,5.657,0,0,1,.513,24.22V13.8A5.651,5.651,0,0,1,6.15,8.167H26.561A5.651,5.651,0,0,1,32.2,13.8v1.722H47.991A4.488,4.488,0,0,1,52.469,20v8.954a4.49,4.49,0,0,1-3.549,4.379v3.655a.928.928,0,0,1-1.585.657l-4.214-4.214H38.042a.93.93,0,1,1,0-1.859h5.465a.918.918,0,0,1,.661.278l2.892,2.892V32.507a.931.931,0,0,1,.931-.931,2.628,2.628,0,0,0,2.618-2.618V20a2.628,2.628,0,0,0-2.618-2.618H32.2V24.22a5.651,5.651,0,0,1-5.637,5.637h-.647ZM10.634,28H26.561a3.791,3.791,0,0,0,3.778-3.778V13.8a3.792,3.792,0,0,0-3.778-3.778H6.15A3.792,3.792,0,0,0,2.372,13.8V24.22A3.792,3.792,0,0,0,6.15,28a.93.93,0,0,1,.928.931v2.239l2.9-2.9A.923.923,0,0,1,10.634,28Zm38.38,34.369H14.465v5.391H49.014V62.367Z"/></g></svg>