<svg xmlns="http://www.w3.org/2000/svg" width="60.617" height="53.488" viewBox="0 0 60.617 53.488"><defs><style>.a{fill:#1c8825;}</style></defs><path class="a" d="M56.169,30.107H36.781a.89.89,0,0,0,0,1.779H56.169a2.672,2.672,0,0,1,2.669,2.669V65.694H54.572V38.363A2.672,2.672,0,0,0,51.9,35.694H8.714a2.672,2.672,0,0,0-2.669,2.669V65.694H1.779V34.555a2.672,2.672,0,0,1,2.669-2.669H33.223a.89.89,0,0,0,0-1.779H4.448A4.454,4.454,0,0,0,0,34.555V70.529a4.453,4.453,0,0,0,4.448,4.448H24.011l-.9,6.838H19.953a.89.89,0,1,0,0,1.779H40.665a.89.89,0,1,0,0-1.779H37.5l-.9-6.838h9.428a.89.89,0,0,0,0-1.779H4.448a2.672,2.672,0,0,1-2.669-2.669V67.473H58.838v3.056A2.672,2.672,0,0,1,56.169,73.2H49.593a.89.89,0,0,0,0,1.779h6.576a4.453,4.453,0,0,0,4.448-4.448V34.555A4.453,4.453,0,0,0,56.169,30.107ZM35.709,81.816h-10.8l.9-6.838h9.007ZM7.824,38.363a.891.891,0,0,1,.89-.89H51.9a.891.891,0,0,1,.89.89v4.379H7.824Zm0,6.158H52.793V65.694H48.468V61.728a.89.89,0,0,0-.89-.89H32.438a.89.89,0,0,0-.89.89v3.966h-2.48V61.728a.89.89,0,0,0-.89-.89H13.039a.89.89,0,0,0-.89.89v3.966H7.824ZM46.688,65.694H33.328V62.617h13.36Zm-19.4,0H13.929V62.617h13.36Z" transform="translate(0 -30.107)"/><path class="a" d="M84.572,102.455a1.367,1.367,0,1,0,1.366,1.367A1.368,1.368,0,0,0,84.572,102.455Z" transform="translate(-73.355 -93.89)"/><path class="a" d="M121.615,102.455a1.367,1.367,0,1,0,1.367,1.367A1.368,1.368,0,0,0,121.615,102.455Z" transform="translate(-106.012 -93.89)"/><path class="a" d="M158.657,102.455a1.367,1.367,0,1,0,1.367,1.367A1.368,1.368,0,0,0,158.657,102.455Z" transform="translate(-138.669 -93.89)"/><path class="a" d="M103.511,186.7h6.472a.89.89,0,1,0,0-1.779H104.4v-7.807h32.757v7.807H113.542a.89.89,0,1,0,0,1.779h24.505a.89.89,0,0,0,.89-.89v-9.586a.89.89,0,0,0-.89-.89H103.511a.89.89,0,0,0-.89.89v9.586A.89.89,0,0,0,103.511,186.7Z" transform="translate(-90.471 -158.141)"/></svg>