<svg xmlns="http://www.w3.org/2000/svg" width="61.577" height="59.525" viewBox="0 0 61.577 59.525"><defs><style>.a{fill:#1c8825;}</style></defs><g transform="translate(-16 -32)"><path class="a" d="M76.551,32H17.026A1.026,1.026,0,0,0,16,33.026V67.92a1.026,1.026,0,0,0,1.026,1.026H33.447V81.319l-.031-.015L30.5,80.053a5.1,5.1,0,0,0,.9-2.9V76.13a5.131,5.131,0,0,0-10.263,0v1.026a5.1,5.1,0,0,0,.9,2.9L19.11,81.3A5.126,5.126,0,0,0,16,86.021V90.5a1.026,1.026,0,0,0,1.026,1.026H72.446A1.026,1.026,0,0,0,73.472,90.5V86.021a5.126,5.126,0,0,0-3.11-4.717l-2.919-1.251a5.1,5.1,0,0,0,.9-2.9V76.13a5.131,5.131,0,0,0-10.263,0v1.026a5.1,5.1,0,0,0,.9,2.9L56.056,81.3a5.124,5.124,0,0,0-2.083,1.639A5.124,5.124,0,0,0,51.889,81.3l-2.919-1.251a5.1,5.1,0,0,0,.9-2.9V76.13a5.126,5.126,0,0,0-2.052-4.1V68.946H76.551a1.026,1.026,0,0,0,1.026-1.026V33.026A1.026,1.026,0,0,0,76.551,32ZM60.13,76.13a3.079,3.079,0,0,1,6.158,0v1.026a3.079,3.079,0,0,1-6.158,0ZM55,86.021a3.076,3.076,0,0,1,1.866-2.83l3.753-1.609a5.114,5.114,0,0,0,5.183,0l3.753,1.608a3.076,3.076,0,0,1,1.866,2.83v3.451H69.367V86.393a1.026,1.026,0,1,0-2.053,0v3.079H59.1V86.393a1.026,1.026,0,1,0-2.053,0v3.079H55ZM18.053,66.894V64.841H28.324a4.333,4.333,0,0,0,.656,2.053Zm14.625,0a2.312,2.312,0,0,1-2.309-2.309v-4.3h3.079v2.507a1.026,1.026,0,0,0,1.026,1.026H39.6v3.079Zm7.242-25.657H43.71a1.026,1.026,0,1,1,0,2.053H39.6a1.026,1.026,0,0,0-.854.457l-1.2,1.8a2.81,2.81,0,0,1-.141-2.757h0A2.789,2.789,0,0,1,39.919,41.237Zm2.764,4.105v3.335a.77.77,0,0,1-.77.77h-.257a1.026,1.026,0,0,0-1.026,1.026V51.5H38.578V47.705l1.575-2.363Zm4.105,8.21a1.026,1.026,0,0,0,.6-.2l1.321-.961,2.247,2.387L49.6,55.945a1.023,1.023,0,0,0-.762-.341H38.578a1.026,1.026,0,0,0-1.026,1.026v5.131H35.5V59.255a1.026,1.026,0,0,0-1.026-1.026H30.368V56.887A3.339,3.339,0,0,1,33.7,53.552ZM64.235,43.89,61.67,46.456l-1.114-1.114,2.353-2.353a1.026,1.026,0,1,0-1.451-1.451l-2.335,2.335a6.167,6.167,0,0,1,5.114-5.627Zm1.752,1.151a1.026,1.026,0,0,0,.3-.726V38.245a6.157,6.157,0,1,1-4.594,11.09Zm-6.34,2.3-7.127,6.109-2.134-2.267,7.585-5.516ZM45.762,71.1C45.431,71.035,35.5,71,35.5,71V68.946h5.131a1.026,1.026,0,0,0,1.026-1.026V65.867h4.105Zm2.053,5.028v1.026a3.079,3.079,0,0,1-6.158,0V76.13a3.079,3.079,0,0,1,6.158,0ZM42.683,63.815H41.657V62.789a1.026,1.026,0,0,0-1.026-1.026H39.6V57.657h3.079ZM23.184,76.13a3.079,3.079,0,0,1,6.158,0v1.026a3.079,3.079,0,0,1-6.158,0ZM34.473,89.472H32.421V86.393a1.026,1.026,0,1,0-2.053,0v3.079h-8.21V86.393a1.026,1.026,0,1,0-2.053,0v3.079H18.053V86.021a3.076,3.076,0,0,1,1.866-2.83l3.753-1.609a5.114,5.114,0,0,0,5.183,0l3.753,1.608a3.075,3.075,0,0,1,1.866,2.83ZM35.5,82.943l-.005-.007c0-.034.005-.068.005-.1V73.051h5.134A5.1,5.1,0,0,0,39.6,76.13v1.026a5.1,5.1,0,0,0,.9,2.9L37.583,81.3A5.124,5.124,0,0,0,35.5,82.943Zm15.581.248a3.075,3.075,0,0,1,1.866,2.83v3.451H50.894V86.393a1.026,1.026,0,1,0-2.053,0v3.079h-8.21V86.393a1.026,1.026,0,1,0-2.053,0v3.079H36.526V86.021a3.076,3.076,0,0,1,1.866-2.83l3.753-1.609a5.114,5.114,0,0,0,5.183,0ZM44.736,63.815V57.657h3.079v6.158Zm30.789,3.079H47.815V65.867h1.026a1.026,1.026,0,0,0,1.026-1.026H75.525Zm0-4.105H49.867V58.422l9.58-8.211a1.02,1.02,0,0,0,.3.189,8.21,8.21,0,1,0-2.681-6.622L46.455,51.5H42.683v-.107a2.827,2.827,0,0,0,2.053-2.716V45.165a3.079,3.079,0,0,0-1.026-5.981H39.919a4.83,4.83,0,0,0-4.344,2.684h0a4.867,4.867,0,0,0,.3,4.866l.647.971V51.5H33.7a5.394,5.394,0,0,0-5.388,5.388v5.9H18.053V34.053H75.525Z"/><path class="a" d="M361.026,210.053h1.026a1.026,1.026,0,1,0,0-2.053h-1.026a1.026,1.026,0,0,0,0,2.053Z" transform="translate(-299.87 -153.422)"/><path class="a" d="M406.158,208h-5.131a1.026,1.026,0,1,0,0,2.053h5.131a1.026,1.026,0,1,0,0-2.053Z" transform="translate(-334.738 -153.422)"/><path class="a" d="M369.237,240h-8.21a1.026,1.026,0,0,0,0,2.053h8.21a1.026,1.026,0,0,0,0-2.053Z" transform="translate(-299.87 -181.317)"/></g></svg>