<svg xmlns="http://www.w3.org/2000/svg" width="65.801" height="65.801" viewBox="0 0 65.801 65.801"><defs><style>.a{fill:#1c8825;}</style></defs><path class="a" d="M480,480h2.123v2.123H480Zm0,0" transform="translate(-416.322 -416.322)"/><path class="a" d="M0,480H2.123v2.123H0Zm0,0" transform="translate(0 -416.322)"/><path class="a" d="M227.184,342.368A3.184,3.184,0,1,0,224,339.184,3.188,3.188,0,0,0,227.184,342.368Zm0-4.245a1.061,1.061,0,1,1-1.061,1.061A1.063,1.063,0,0,1,227.184,338.123Zm0,0" transform="translate(-194.284 -291.425)"/><path class="a" d="M84,45.441a3.179,3.179,0,1,0-3.977-1.717A32.44,32.44,0,0,1,73.148,48.1L71.43,36.084h1.96V29.716H70.207V19.1H72.33V12.736H70.144A9.566,9.566,0,0,0,63.839,4.8V0H57.471V4.8a9.566,9.566,0,0,0-6.305,7.933H48.981V19.1H51.1V29.716H47.92v6.368h1.96L48.163,48.1a32.413,32.413,0,0,1-6.879-4.378,3.185,3.185,0,1,0-3.977,1.717V63.678H32V65.8H89.31V63.678H84Zm-1.061-4.05a1.061,1.061,0,1,1-1.061,1.061A1.063,1.063,0,0,1,82.943,41.391Zm-1.454,3.877a3.079,3.079,0,0,0,.393.172V63.678H75.373L73.461,50.29A34.5,34.5,0,0,0,81.488,45.268Zm-25.024.14A1.583,1.583,0,0,1,58.3,43.567l.662.116.387-.551a1.629,1.629,0,0,1,2.6,0l.387.551.662-.116a1.584,1.584,0,0,1,1.838,1.841l-.113.663.551.387a1.582,1.582,0,0,1,0,2.6l-.55.387.115.663a1.583,1.583,0,0,1-1.839,1.841l-.662-.116-.387.551a1.629,1.629,0,0,1-2.6,0l-.387-.551-.662.116a1.583,1.583,0,0,1-1.838-1.841l.115-.663-.551-.387a1.581,1.581,0,0,1,0-2.6l.551-.387Zm8.946,11.522-2.077,1.038L62.1,54.89A3.743,3.743,0,0,0,63.28,54.1h.005ZM58.025,54.1h.005a3.733,3.733,0,0,0,1.177.792l-1.231,3.079L55.9,56.929Zm-3.013-1.561a3.714,3.714,0,0,0,.39.478,3.756,3.756,0,0,0,.485.4l-3.211,4.282L59.09,60.9l1.566-3.914L62.222,60.9l6.413-3.207-3.211-4.282a3.755,3.755,0,0,0,.485-.4,3.579,3.579,0,0,0,.39-.478,31.562,31.562,0,0,0,5.136-1.415l1.794,12.558H48.082L49.875,51.12A31.575,31.575,0,0,0,55.012,52.534ZM68,12.736H64.857a13.9,13.9,0,0,0-1.916-6A7.444,7.444,0,0,1,68,12.736ZM60.655,7.1a11.761,11.761,0,0,1,2.07,5.635h-4.14A11.761,11.761,0,0,1,60.655,7.1ZM59.594,2.123h2.123V4.308a9.013,9.013,0,0,0-2.123,0ZM58.369,6.732a13.92,13.92,0,0,0-1.916,6H53.311A7.443,7.443,0,0,1,58.369,6.732ZM51.1,14.858h19.1v2.123H51.1ZM53.226,19.1H68.084V29.716H65.962V23.349H63.839v6.368H61.716V23.349H59.594v6.368H57.471V23.349H55.349v6.368H53.226ZM50.042,31.839H71.268v2.123H50.042Zm1.983,4.245H69.287l1.841,12.879a29.647,29.647,0,0,1-3.975,1.226,3.671,3.671,0,0,0-.16-5.056,3.7,3.7,0,0,0-3.708-3.711h0a3.7,3.7,0,0,0-5.252,0h0a3.7,3.7,0,0,0-3.708,3.712,3.668,3.668,0,0,0-.159,5.055,29.646,29.646,0,0,1-3.975-1.226ZM38.368,41.391a1.061,1.061,0,1,1-1.061,1.061A1.063,1.063,0,0,1,38.368,41.391Zm1.061,4.05a3.021,3.021,0,0,0,.393-.173A34.455,34.455,0,0,0,47.85,50.29L45.937,63.678H39.429Zm0,0" transform="translate(-27.755)"/></svg>