<svg xmlns="http://www.w3.org/2000/svg" width="42.648" height="62.886" viewBox="0 0 42.648 62.886"><defs><style>.a{fill:#1c8825;}</style></defs><path class="a" d="M116.891,0H94.779a.921.921,0,1,0,0,1.842h19.673L89.881,9.7a2.757,2.757,0,0,0-2.118,2.686V51.417H85.148a.922.922,0,0,1-.921-.921V2.763a.922.922,0,0,1,.921-.921H90.48A.921.921,0,1,0,90.48,0H85.148a2.766,2.766,0,0,0-2.763,2.763V50.5a2.766,2.766,0,0,0,2.763,2.763h2.615v6.863a2.766,2.766,0,0,0,2.763,2.763H122.27a2.766,2.766,0,0,0,2.763-2.763v-3.3a.921.921,0,1,0-1.842,0v3.3a.922.922,0,0,1-.921.921H90.527a.922.922,0,0,1-.921-.921V12.389a.926.926,0,0,1,.921-.921H122.27a.922.922,0,0,1,.921.921V52.525a.921.921,0,1,0,1.842,0V12.389a2.766,2.766,0,0,0-2.763-2.763h-2.615V2.763A2.765,2.765,0,0,0,116.891,0ZM96.168,9.626,117.81,2.7c0,.02,0,.04,0,.061V9.626H96.168Z" transform="translate(-82.385 0)"/><path class="a" d="M175.338,116.154a1.783,1.783,0,0,0-1.781-1.781h-9.6a1.783,1.783,0,0,0-1.781,1.781v8.9a1.783,1.783,0,0,0,1.781,1.781h9.6a1.783,1.783,0,0,0,1.781-1.781Zm-1.842,8.838h-9.478v-8.777H173.5Z" transform="translate(-152.375 -100.325)"/><path class="a" d="M173.557,374.539h-9.6a1.783,1.783,0,0,0-1.781,1.781v8.9A1.783,1.783,0,0,0,163.956,387h9.6a1.783,1.783,0,0,0,1.781-1.781v-8.9A1.783,1.783,0,0,0,173.557,374.539Zm-.061,10.619h-9.478v-8.777H173.5Z" transform="translate(-152.375 -328.537)"/><path class="a" d="M175.338,250.281a1.783,1.783,0,0,0-1.781-1.781h-9.6a1.783,1.783,0,0,0-1.781,1.781v8.9a1.783,1.783,0,0,0,1.781,1.781h9.6a1.783,1.783,0,0,0,1.781-1.781Zm-1.842,8.839h-9.478v-8.777H173.5Z" transform="translate(-152.375 -217.978)"/><path class="a" d="M298.239,143.43H286.855a.921.921,0,1,0,0,1.842h11.383a.921.921,0,1,0,0-1.842Z" transform="translate(-260.933 -125.813)"/><path class="a" d="M286.855,173.618h4.258a.921.921,0,0,0,0-1.842h-4.258a.921.921,0,1,0,0,1.842Z" transform="translate(-260.933 -150.678)"/><path class="a" d="M298.239,277.557H286.855a.921.921,0,1,0,0,1.842h11.383a.921.921,0,1,0,0-1.842Z" transform="translate(-260.933 -243.467)"/><path class="a" d="M286.855,307.746h4.258a.921.921,0,0,0,0-1.842h-4.258a.921.921,0,1,0,0,1.842Z" transform="translate(-260.933 -268.332)"/><path class="a" d="M299.16,404.517a.921.921,0,0,0-.921-.921H286.855a.921.921,0,1,0,0,1.842h11.383A.921.921,0,0,0,299.16,404.517Z" transform="translate(-260.933 -354.025)"/><path class="a" d="M286.855,431.943a.921.921,0,1,0,0,1.842h4.258a.921.921,0,1,0,0-1.842Z" transform="translate(-260.933 -378.89)"/></svg>