<svg xmlns="http://www.w3.org/2000/svg" width="60.067" height="60.518" viewBox="0 0 60.067 60.518"><defs><style>.a{fill:#1c8825;}</style></defs><g transform="translate(-1.901)"><path class="a" d="M281.651,441.53a.89.89,0,0,0-1.154.5l-2.5,6.362a.89.89,0,1,0,1.656.652l2.5-6.362A.89.89,0,0,0,281.651,441.53Z" transform="translate(-243.283 -389.092)"/><path class="a" d="M61.69,53.825,45,38.019l6.524-16.582,1.263.849h0a1.652,1.652,0,0,0,2.428-.692l1.053-2.335,2.1-3.124a6.652,6.652,0,0,0-1.806-9.222l-1.7-1.141h3.014a2.453,2.453,0,0,0,2.45-2.45V1.78H60.9A.89.89,0,0,0,60.9,0h-15.9a.89.89,0,0,0,0,1.78h.582V3.322a2.441,2.441,0,0,0,.837,1.84,6.6,6.6,0,0,0-1.743,1.762l-2.1,3.124L40.8,11.9a1.652,1.652,0,0,0,.275,2.509l1.593,1.071L39.24,18.732a.89.89,0,0,0,1.224,1.292L44.182,16.5l5.827,3.918L43.6,36.7,33.228,26.875l4.48-4.243a.89.89,0,1,0-1.224-1.292L31.934,25.65,21.2,15.485l1.593-1.071a1.652,1.652,0,0,0,.275-2.509L21.3,10.048,19.2,6.924A6.636,6.636,0,0,0,17.46,5.159a2.439,2.439,0,0,0,.835-1.837V1.78h.582a.89.89,0,1,0,0-1.78H2.973a.89.89,0,0,0,0,1.78h.568V3.322a2.453,2.453,0,0,0,2.45,2.45H9.006l-1.7,1.141A6.608,6.608,0,0,0,4.834,9.995a.89.89,0,0,0,1.657.65A4.835,4.835,0,0,1,8.3,8.39l2.67-1.8a4.865,4.865,0,0,1,6.752,1.323l1.58,2.349L8.56,17.492,6.98,15.142a4.869,4.869,0,0,1-.612-1.28.89.89,0,1,0-1.7.525A6.648,6.648,0,0,0,5.5,16.135l2.1,3.124,1.053,2.335a1.651,1.651,0,0,0,2.428.692l1.263-.849,6.524,16.582L2.179,53.825A.89.89,0,1,0,3.4,55.117L19.573,39.8l1.625,4.13a.89.89,0,0,0,1.656-.652l-1.888-4.8L31.934,28.1,42.9,38.485,38.6,49.407a.89.89,0,1,0,1.656.652L44.3,39.8,60.466,55.117a.89.89,0,0,0,1.224-1.292ZM58.548,1.78V3.322a.671.671,0,0,1-.671.671H48.024a.672.672,0,0,1-.671-.671V1.78Zm-12.4,6.138A4.871,4.871,0,0,1,52.9,6.595l2.67,1.8a4.871,4.871,0,0,1,1.322,6.752l-1.58,2.35L44.564,10.267Zm-2.671,3.76,10.941,7.357-.762,1.691-11.457-7.7ZM5.321,3.322V1.78H16.515V3.322a.671.671,0,0,1-.671.671H5.992a.671.671,0,0,1-.671-.671Zm4.9,17.4-.762-1.691L20.4,11.678l1.278,1.344ZM20.264,36.7,13.859,20.421,19.686,16.5,30.64,26.875Z"/><path class="a" d="M202.27,453.441a.89.89,0,0,0-1.656.652l1.971,5.009a.89.89,0,0,0,1.656-.652Z" transform="translate(-175.083 -399.147)"/><path class="a" d="M417.542,269.032a4.307,4.307,0,0,1-1.308-1.264,1.466,1.466,0,0,0-2.508.133,2.741,2.741,0,0,1-1.223,1.141,1.465,1.465,0,0,0-.133,2.528,4.184,4.184,0,0,1,1.279,1.318,1.454,1.454,0,0,0,1.237.69h0a1.468,1.468,0,0,0,1.248-.691,4.264,4.264,0,0,1,1.4-1.367,1.465,1.465,0,0,0,0-2.488Zm-2.646,2.524a5.981,5.981,0,0,0-1.142-1.181,4.48,4.48,0,0,0,1.289-1.222,6.105,6.105,0,0,0,1.163,1.122A6.065,6.065,0,0,0,414.9,271.556Z" transform="translate(-361.188 -235.432)"/><path class="a" d="M165.208,390.1a1.529,1.529,0,0,0,0-2.6,4.954,4.954,0,0,1-1.483-1.434,1.53,1.53,0,0,0-2.618.14,3.144,3.144,0,0,1-1.4,1.309,1.529,1.529,0,0,0-.139,2.639,4.746,4.746,0,0,1,1.451,1.495,1.518,1.518,0,0,0,1.291.72h0a1.532,1.532,0,0,0,1.3-.721A4.9,4.9,0,0,1,165.208,390.1Zm-2.889.293a6.563,6.563,0,0,0-1.443-1.491,4.892,4.892,0,0,0,1.6-1.519,6.7,6.7,0,0,0,1.468,1.417A6.64,6.64,0,0,0,162.319,390.4Z" transform="translate(-138.352 -339.677)"/><path class="a" d="M46.6,284.5a1.4,1.4,0,0,0,1.187.662h0a1.407,1.407,0,0,0,1.2-.662,3.735,3.735,0,0,1,1.229-1.2,1.406,1.406,0,0,0,0-2.387,3.772,3.772,0,0,1-1.146-1.107,1.406,1.406,0,0,0-2.406.128,2.371,2.371,0,0,1-1.058.985,1.406,1.406,0,0,0-.128,2.426A3.662,3.662,0,0,1,46.6,284.5Zm1.332-3.248a5.562,5.562,0,0,0,.885.854,5.524,5.524,0,0,0-1.021,1,5.453,5.453,0,0,0-.869-.9,4.1,4.1,0,0,0,1-.952Z" transform="translate(-37.848 -246.068)"/></g></svg>