<svg xmlns="http://www.w3.org/2000/svg" width="85.334" height="45.064" viewBox="0 0 85.334 45.064"><defs><style>.a{fill:#1c8825;}</style></defs><g transform="translate(-354.697 -237.895)"><g transform="translate(360.542 268.421)"><path d="M358.473,292.324v-1.2h1.79v-5.068c0-1.2-.329-2.292-2.12-2.292a6.054,6.054,0,0,0-3.777,1.9v5.461h1.81v1.2h-4.8v-1.2h1.811V279.835h-1.855v-1.2h3.034v5.721a6.42,6.42,0,0,1,4.082-1.789c2.535,0,2.994,1.636,2.994,3.012v5.546h1.79v1.2Z" transform="translate(-351.332 -278.046)"/><path d="M380.87,292.242a5.73,5.73,0,0,1-4.319,2.335,2.092,2.092,0,0,1-2.271-1.72,1.7,1.7,0,0,1,.784-1.377,5.347,5.347,0,0,1,3.015-.617,16.676,16.676,0,0,1,2.79.288Zm2.974,3.275v-1.2h-1.79v-5.264a3.528,3.528,0,0,0-.372-1.789c-.459-.851-1.554-1.506-3.405-1.506a11.445,11.445,0,0,0-4.255.955l.3,1.18a9.648,9.648,0,0,1,3.732-.915,3.843,3.843,0,0,1,2.1.46,2.059,2.059,0,0,1,.715,1.832v.683a19.121,19.121,0,0,0-3.076-.311c-3.58,0-4.739,1.9-4.739,3.19a3.181,3.181,0,0,0,3.472,2.944,6.519,6.519,0,0,0,4.369-2.094v1.834Z" transform="translate(-361.069 -281.239)"/><path d="M404.69,287.584a3.726,3.726,0,0,1-3.624,3.8,3.658,3.658,0,0,1-3.739-3.863,3.735,3.735,0,0,1,3.739-3.756A3.619,3.619,0,0,1,404.69,287.584Zm1.2,0a4.806,4.806,0,0,0-8.626-3.123v-5.827h-2.985v1.2h1.811v11.289h-1.811v1.2h2.985v-1.505a4.409,4.409,0,0,0,3.938,1.765A4.913,4.913,0,0,0,405.887,287.584Z" transform="translate(-370.58 -278.046)"/><path d="M418.952,280.255v-2.687H420.5v2.687Zm-3.5,11.591v-1.2H419.3v-7.074h-3.317v-1.2H420.5v8.275h3.776v1.2Z" transform="translate(-380.074 -277.568)"/><path d="M435.168,293.718c-1.137,0-3.492-.391-3.492-2.863v-5.672h-1.55v-1.2h1.55v-2.82h1.178v2.82h5.636v1.2h-5.636v5.152a1.91,1.91,0,0,0,.8,1.787,3.629,3.629,0,0,0,1.749.395,12.7,12.7,0,0,0,4.259-1.2l.13,1.18A12.188,12.188,0,0,1,435.168,293.718Z" transform="translate(-386.649 -279.179)"/><path d="M456.83,292.242a5.749,5.749,0,0,1-4.326,2.335,2.093,2.093,0,0,1-2.271-1.72,1.7,1.7,0,0,1,.785-1.377,5.331,5.331,0,0,1,3.014-.617,16.8,16.8,0,0,1,2.8.288Zm2.967,3.275v-1.2h-1.789v-5.264a3.479,3.479,0,0,0-.375-1.789c-.46-.851-1.549-1.506-3.4-1.506a11.478,11.478,0,0,0-4.257.955l.305,1.18a9.673,9.673,0,0,1,3.732-.915,3.837,3.837,0,0,1,2.1.46,2.054,2.054,0,0,1,.722,1.832v.683a19.224,19.224,0,0,0-3.077-.311c-3.584,0-4.742,1.9-4.742,3.19a3.181,3.181,0,0,0,3.474,2.944,6.517,6.517,0,0,0,4.365-2.094v1.834Z" transform="translate(-395.114 -281.239)"/><path d="M472.443,293.718c-1.132,0-3.492-.391-3.492-2.863v-5.672H467.4v-1.2h1.551v-2.82h1.18v2.82h5.63v1.2h-5.63v5.152a1.914,1.914,0,0,0,.806,1.787,3.61,3.61,0,0,0,1.749.395,12.7,12.7,0,0,0,4.257-1.2l.13,1.18A12.2,12.2,0,0,1,472.443,293.718Z" transform="translate(-403.357 -279.179)"/></g><path class="a" d="M404.918,240.617c1.5,2.382,2.421,5.165,4.695,7.183,1.354,1.832,2.09,4.321,4.319,5.389l.558-.184c.692-.884,1.721-1.431,2.085-2.493,1.686-1.615,2.528-3.555,4.141-5.062a27.075,27.075,0,0,1,2.494-3.368,39.554,39.554,0,0,1,3.554-3.377c.3-.621,1.1-.621,1.728-.51,2.347.4,3.734,2.641,5.273,4.4a89.116,89.116,0,0,0,8.8,15.026c.332,1.135-.473,1.976-1.172,2.639l-1.469.8a12.653,12.653,0,0,1-4.763-5.238c-.95-1.32-1.393-3.006-2.452-4.293a12.526,12.526,0,0,0-2.6-3.294,2.8,2.8,0,0,0-3-.957c-4.66,4.545-7.846,10.151-12.21,14.882l-.477.147c-1.281-.222-2.267-1.207-3.37-1.836a30.431,30.431,0,0,1-2.271-2.633c-1.393-1.691-2.129-3.6-3.412-5.318-.107-.549-.585-.953-.768-1.5-.477-.331-.477-.953-.957-1.28-.328-1.063-1.392-1.762-1.98-2.676a4.529,4.529,0,0,0-3.046-1.4c-3.48.512-5.127,4-6.995,6.635-2.9,2.457-3.707,5.974-6.309,8.541a5.161,5.161,0,0,1-5.279.259c-3.15-3.671-7.108-6.309-9.6-10.375-.624-.807-1.427.036-2.161.072-2.82,1.54-3.995,4.542-5.534,7-.663.546-1.1,1.5-1.9,1.976-1.248-.585-2.6-1.025-3.519-2.308a17.979,17.979,0,0,1,2.529-6.893c.22-.511.22-1.21.839-1.467a10.394,10.394,0,0,1,1.9-2.707c.151-.7,1.033-.809,1.253-1.5.367-.039.438-.478.656-.7,1.76-1.17,3.192-3.37,5.647-2.932a4.523,4.523,0,0,1,1.982.292,35.443,35.443,0,0,0,3.37,5.5,34.927,34.927,0,0,0,5.717,6.339,8.78,8.78,0,0,0,2.2,0c1.432-.661,2.237-2.165,2.931-3.412.111-.548.664-.914.765-1.463a60.091,60.091,0,0,1,4.7-4.363,28.524,28.524,0,0,1,2.819-2.382c1.172-1.138,2.347-2.125,3.7-3.224A4.675,4.675,0,0,1,404.918,240.617Z" transform="translate(-2.607)"/></g></svg>